<svg xmlns="http://www.w3.org/2000/svg" xmlns:xlink="http://www.w3.org/1999/xlink" viewBox="0 0 1920 1080"><defs><style>.cls-1{fill:none;}.cls-2,.cls-6{fill:#f9960d;}.cls-3{clip-path:url(#clip-path);}.cls-4{fill:#fcebd6;}.cls-5{clip-path:url(#clip-path-2);}.cls-11,.cls-13,.cls-6{opacity:0.3;}.cls-7{fill:#d37809;}.cls-8{fill:#f9d9a6;}.cls-9{fill:#ffb677;}.cls-10{opacity:0.44;}.cls-12{fill:#e6e6e6;}.cls-13{fill:#121214;}.cls-14{fill:#bf113f;}.cls-15{fill:url(#linear-gradient);}.cls-16{fill:#fff;}.cls-17,.cls-19{opacity:0.35;}.cls-17{fill:url(#linear-gradient-2);}.cls-18{fill:#ba5007;}.cls-19{fill:url(#linear-gradient-3);}.cls-20{opacity:0.1;}.cls-21{isolation:isolate;}</style><clipPath id="clip-path"><rect class="cls-1" width="1920" height="1080"/></clipPath><clipPath id="clip-path-2"><polygon class="cls-1" points="1291.37 339.69 1920 702.53 1920 0 707.53 2.45 1291.37 339.69"/></clipPath><linearGradient id="linear-gradient" x1="1144.27" y1="559.03" x2="1765.7" y2="559.03" gradientUnits="userSpaceOnUse"><stop offset="0" stop-color="#ffb677"/><stop offset="1" stop-color="#bf113f"/></linearGradient><linearGradient id="linear-gradient-2" x1="1698.14" y1="364.21" x2="1492.87" y2="764.04" xlink:href="#linear-gradient"/><linearGradient id="linear-gradient-3" x1="1524.95" y1="544.06" x2="1721.03" y2="118.19" xlink:href="#linear-gradient"/></defs><g id="Roman"><rect class="cls-2" width="1920" height="1080"/><g class="cls-3"><polygon class="cls-4" points="1291.37 339.69 1920 702.53 1920 0 707.53 2.45 1291.37 339.69"/><g class="cls-5"><path class="cls-6" d="M1940,315.34v-2.42L1929.47,319l-34.91-20.16,34.91-20.15,10.53,6.09v-2.42l-8.44-4.88,8.44-4.88v-2.4l-10.53,6.07-34.91-20.15L1929.47,236l10.53,6.07v-2.41l-8.44-4.87,8.44-4.88v-2.42l-10.53,6.09-34.91-20.15,34.91-20.16,10.53,6.08v-2.41l-8.44-4.87,8.44-4.89v-2.4l-10.53,6.08-34.91-20.16,34.91-20.15,10.53,6.08V154.2l-8.44-4.87,8.44-4.87v-2.41l-10.53,6.08L1894.56,128l34.91-20.15L1940,113.9v-2.41l-8.44-4.87,8.44-4.88V99.32l-10.53,6.09-34.91-20.15,34.91-20.16L1940,71.18V68.76l-8.44-4.87L1940,59V56.61l-10.53,6.08-34.91-20.16,34.91-20.15L1940,28.46V26l-8.44-4.87L1940,16.3V13.89L1929.47,20,1894.56-.19l3.82-2.2h-4.19l-1.72,1-1.73-1h-4.17l3.81,2.2L1855.47,20,1820.57-.19l3.81-2.2h-4.18l-1.72,1-1.72-1h-4.18l3.81,2.2L1781.48,20,1746.58-.19l3.81-2.2h-4.19l-1.71,1-1.72-1h-4.19l3.82,2.2L1707.49,20,1672.59-.19l3.82-2.2h-4.2l-1.72,1-1.71-1h-4.19l3.81,2.2L1633.5,20,1598.6-.19l3.82-2.2h-4.19l-1.72,1-1.72-1h-4.19l3.81,2.2L1559.52,20,1524.6-.19l3.82-2.2h-4.18l-1.73,1-1.71-1h-4.19l3.82,2.2L1485.53,20,1450.62-.19l3.81-2.2h-4.19l-1.71,1-1.73-1h-4.17l3.81,2.2L1411.53,20,1372.81-2.39h-4.27l-34.85,20.13L1298.82-2.39h-4.27l-34.86,20.13L1224.83-2.39h-4.27L1185.7,17.74,1150.85-2.39h-4.27l-34.87,20.13L1076.85-2.39h-4.27L1033.87,20,999-.19l3.82-2.2h-4.19l-1.72,1-1.72-1H991l3.82,2.2L959.88,20,925-.19l3.8-2.2H924.6l-1.71,1-1.73-1H917l3.81,2.2L885.89,20,851-.19l3.82-2.2h-4.18l-1.72,1-1.72-1H843l3.82,2.2L811.88,20,777-.19l3.81-2.2h-4.19l-1.71,1-1.73-1H769l3.81,2.2L737.9,20,703-.19l3.81-2.2h-4.18l-1.72,1-1.72-1H695l3.82,2.2L663.91,20,629-.19l3.81-2.2h-4.19l-1.72,1-1.72-1H621l3.82,2.2L589.92,20,555-.19l3.81-2.2h-4.19l-1.72,1-1.71-1H547l3.81,2.2L515.93,20,481-.19l3.8-2.2h-4.17l-1.72,1-1.72-1H473l3.81,2.2L447,17.07v2.41L478.94,1l34.89,20.15L478.94,41.32,447,22.86v2.42l29.89,17.25L447,59.79v2.42l32-18.47,34.89,20.15L478.94,84.05,447,65.58V68l29.89,17.26L447,102.51v2.42l32-18.46,34.89,20.15-34.89,20.15L447,108.3v2.42L476.84,128,447,145.23v2.41l32-18.46,34.89,20.15-34.89,20.15L447,151v2.41l29.89,17.26L447,188v2.42l32-18.47,34.89,20.16-34.89,20.15-32-18.47v2.42l29.89,17.26L447,230.67v2.41l32-18.45,34.89,20.15-34.89,20.15-32-18.46v2.4l29.89,17.26L447,273.39v2.41l32-18.46,34.89,20.15-34.89,20.16-32-18.47v2.41l29.89,17.26L447,316.11v2.42l32-18.47,34.89,20.16-34.89,20.15L447,321.9v2.42l29.89,17.26L447,358.82v2.42l32-18.47,34.89,20.16-37.46,21.64-29.42-17V370l27.32,15.78L447,401.55V404l29.42-17,34.9,20.15-34.9,20.15-29.42-17v2.41l27.32,15.78L447,444.27v2.41l29.42-17,34.9,20.15L476.37,470,447,453v2.42l27.32,15.78L447,487v2.42l29.42-17,34.9,20.16-34.9,20.15-29.42-17v2.41l27.32,15.78L447,529.71v2.41l29.42-17,38.75,22.37-34.9,20.15L447,538.47v2.41l31.18,18-31.18,18v2.42l33.27-19.21,34.9,20.15-34.9,20.15L447,581.18v2.42l31.18,18-31.18,18V622l33.27-19.2L515.12,623l-34.9,20.17L447,623.91v2.41l31.18,18-31.18,18v2.41l33.27-19.21,34.9,20.16-34.9,20.15L447,666.63V669l31.18,18L447,705v2.41l33.27-19.2,34.9,20.15-34.9,20.15L447,709.35v2.42l31.18,18-31.18,18v2.42L480.22,731l34.9,20.15-34.9,20.15L447,752.06v2.42l31.18,18-31.18,18v2.41l33.27-19.2,34.9,20.15L480.22,814,447,794.79v2.42l31.18,18L447,833.2v2.41l33.27-19.2,34.9,20.15-34.9,20.15L447,837.51v2.42l31.18,18-31.18,18v2.42l33.27-19.2,34.9,20.15-34.9,20.15L447,880.22v2.42l31.18,18-31.18,18v2.41l33.27-19.2L515.12,922l-34.9,20.15L447,923v2.42l31.18,18-31.18,18v2.42l33.27-19.2,34.9,20.15-34.9,20.15L447,965.67v2.41l31.18,18-31.18,18v2.43l33.27-19.21,34.9,20.15-34.9,20.16L447,1008.39v2.41l31.18,18-31.18,18v2.41L480.22,1030l34.9,20.17-38.75,22.36-29.42-17V1058l27.32,15.76L447,1089.52v2.42l29.42-17,34.9,20.16-34.9,20.15-29.42-17v2.42l27.32,15.78L447,1132.24v2.41l29.42-17,34.9,20.14L476.37,1158,447,1141v2.41l27.32,15.77L447,1175v2.41l29.42-17,34.9,20.15-34.9,20.16-29.42-17v2.42l27.32,15.76L447,1217.68v2.42l29.42-17,37.46,21.63-34.89,20.16-32-18.46v2.41l29.89,17.26L447,1263.36v2.42l32-18.47,34.89,20.16-34.89,20.15-32-18.46v2.41l29.89,17.26L447,1306.09v2.42l32-18.47,34.89,20.15-34.89,20.14-32-18.45v2.42l29.89,17.24L447,1348.8v2.42l32-18.47,34.89,20.15-34.89,20.16-32-18.47V1357l29.89,17.26L447,1391.52v2.42l32-18.47,34.89,20.16-34.89,20.15-32-18.46v2.41L476.84,1417,447,1434.25v2.41l32-18.47,34.89,20.15-34.89,20.15L447,1440v2.41l29.89,17.25L447,1477v2.42l32-18.47,34.89,20.15-16.6,9.6h4.17l14.53-8.39,14.52,8.39h4.19l-16.62-9.6,34.9-20.15,34.91,20.15-16.62,9.6h4.19l14.52-8.39,14.53,8.39h4.17l-16.61-9.6,34.9-20.15,34.91,20.15-16.62,9.6h4.19l14.52-8.39,14.52,8.39h4.2l-16.63-9.6,34.91-20.15,34.9,20.15-16.61,9.6h4.18l14.52-8.39,14.52,8.39h4.19l-16.62-9.6,34.91-20.15,34.9,20.15-16.62,9.6h4.2l14.5-8.39,14.53,8.39h4.19l-16.61-9.6,34.9-20.15,34.91,20.15-16.62,9.6h4.18l14.53-8.39,14.51,8.39h4.19l-16.62-9.6,34.92-20.15,34.89,20.15-16.61,9.6h4.19l14.52-8.39,14.52,8.39h4.18l-16.6-9.6,34.89-20.15,34.91,20.15-16.62,9.6h4.18l14.52-8.39,14.53,8.39h4.18l-16.61-9.6,34.9-20.15,34.9,20.15-16.61,9.6h4.19l14.51-8.39,14.53,8.39h4.19l-16.62-9.6,34.9-20.15,34.91,20.15-16.61,9.6h4.17l14.53-8.39,14.53,8.39h4.17l-16.61-9.6,38.76-22.37,38.75,22.37-16.61,9.6H1249l14.51-8.39,14.53,8.39h4.18l-16.61-9.6,34.9-20.15,34.91,20.15-16.62,9.6H1323l14.53-8.39,14.51,8.39h4.19l-16.63-9.6,34.92-20.15,34.89,20.15-16.61,9.6H1397l14.52-8.39,14.53,8.39h4.17l-16.6-9.6,34.9-20.15,34.89,20.15-16.61,9.6H1471l14.53-8.39,14.51,8.39h4.19l-16.62-9.6,34.9-20.15,34.91,20.15-16.62,9.6H1545l14.52-8.39,14.52,8.39h4.19l-16.62-9.6,34.91-20.15,34.91,20.15-16.62,9.6H1619l14.52-8.39,14.52,8.39h4.19l-16.61-9.6,34.89-20.15,34.91,20.15-16.61,9.6H1693l14.53-8.39,14.53,8.39h4.18l-16.62-9.6,34.91-20.15,34.9,20.15-16.62,9.6H1767l14.52-8.39,14.53,8.39h4.18l-16.61-9.6,34.9-20.15,34.9,20.15-16.61,9.6H1841l14.52-8.39,14.53,8.39h4.19l-16.62-9.6,34.9-20.15,34.9,20.15-16.61,9.6H1915l14.52-8.39,10.53,6.08v-2.41l-8.44-4.88,8.44-4.87v-2.41l-10.53,6.08-34.91-20.16,34.91-20.15,10.53,6.09v-2.42l-8.44-4.88,8.44-4.87v-2.41l-10.53,6.07L1894.56,1417l34.91-20.15,10.53,6.08v-2.42l-8.44-4.87,8.44-4.88v-2.42l-10.53,6.09-34.91-20.15,34.91-20.16,10.53,6.09v-2.42l-8.44-4.88L1940,1348v-2.41l-10.53,6.07-34.91-20.15,34.91-20.15,10.53,6.09v-2.42l-8.44-4.87,8.44-4.88v-2.41l-10.53,6.08-34.91-20.15,34.91-20.15,10.53,6.08v-2.42l-8.44-4.87,8.44-4.88v-2.41l-10.53,6.08-34.91-20.15,34.91-20.16L1940,1232v-2.42l-8.44-4.88,8.44-4.86v-2.42l-10.53,6.07-34.91-20.15,37.48-21.63,8,4.6v-2.42l-5.87-3.39,5.87-3.39v-2.4l-8,4.58-34.91-20.15L1932,1139l8,4.6v-2.42l-5.87-3.39,5.87-3.39V1132l-8,4.6-34.91-20.15,34.91-20.16,8,4.6v-2.42l-5.87-3.38,5.87-3.39v-2.42l-8,4.6-38.76-22.38,34.9-20.15,11.82,6.82v-2.42l-9.73-5.6,9.73-5.63v-2.41l-11.82,6.82-34.9-20.14,34.9-20.16,11.82,6.82v-2.41l-9.73-5.62,9.73-5.62v-2.41l-11.82,6.82-34.9-20.15,34.9-20.15,11.82,6.82v-2.42l-9.73-5.61,9.73-5.61v-2.42l-11.82,6.82-34.9-20.15,34.9-20.15L1940,930v-2.42l-9.73-5.61,9.73-5.62V914l-11.82,6.81-34.9-20.15,34.9-20.15L1940,887.3v-2.4l-9.73-5.62,9.73-5.62v-2.41l-11.82,6.83-34.9-20.16,34.9-20.15,11.82,6.82v-2.42l-9.73-5.61L1940,831v-2.42l-11.82,6.82-34.9-20.15,34.9-20.15,11.82,6.82v-2.41l-9.73-5.62,9.73-5.62V785.8l-11.82,6.83-34.9-20.15,34.9-20.15,11.82,6.81v-2.4l-9.73-5.61,9.73-5.62v-2.42l-11.82,6.83-34.9-20.16,34.9-20.15,11.82,6.82V714l-9.73-5.61,9.73-5.61v-2.42l-11.82,6.82L1893.28,687l34.9-20.15,11.82,6.82V671.3l-9.73-5.62,9.73-5.62v-2.41l-11.82,6.82-34.9-20.14,34.9-20.17L1940,631v-2.41l-9.73-5.63,9.73-5.6v-2.42l-11.82,6.83-34.9-20.16,34.9-20.15,11.82,6.82v-2.42l-9.73-5.61,9.73-5.61v-2.42L1928.18,579l-34.9-20.15,34.9-20.15,11.82,6.83v-2.43l-9.73-5.61,9.73-5.61v-2.42l-11.82,6.83-34.9-20.15L1932,493.79l8,4.58V496l-5.87-3.39,5.87-3.39v-2.42l-8,4.6-34.91-20.15L1932,451.06l8,4.6v-2.42l-5.87-3.39,5.87-3.39v-2.41l-8,4.6-34.91-20.15L1932,408.35l8,4.59v-2.41l-5.87-3.39,5.87-3.4v-2.42l-8,4.61-37.48-21.64,34.91-20.15,10.53,6.09v-2.42l-8.44-4.88,8.44-4.87v-2.42l-10.53,6.09-34.91-20.15,34.91-20.16L1940,327.5v-2.42l-8.44-4.86Zm-12.63-37.85-34.9,20.16-34.9-20.16,34.9-20.15Zm-185-64.07-34.91,20.15-34.9-20.15,34.9-20.16Zm-32.82-21.36,34.91-20.16,34.9,20.16-34.9,20.15Zm-486.88,535-34.9-20.15,34.9-20.15,34.91,20.15Zm37-18.94,34.91,20.15-34.91,20.15-34.9-20.15Zm-39.08,20.15-34.91,20.15-34.9-20.15,34.9-20.15Zm-71.9-1.21-34.91-20.15,34.91-20.15,34.9,20.15Zm-2.1,1.21-37.46,21.64-34.91-20.16,37.47-21.63Zm-2.57,44.2-34.89,20.15-34.91-20.15,34.91-20.15Zm-32.8-21.36,37.47-21.63,34.9,20.14-37.47,21.64Zm74.46-.28L1220.61,771l-37.48,21.64-34.89-20.15Zm2.1-1.21,34.9-20.14,34.91,20.14L1222.7,769.8Zm71.89,1.21,37.48,21.64-34.91,20.15L1224.79,771Zm2.1-1.21,34.9-20.14,37.47,21.64-34.9,20.14Zm0-42.71,34.9-20.15,34.9,20.15-34.9,20.15Zm0-42.72,34.9-20.16,34.9,20.16-34.9,20.15Zm32.81,21.36-34.91,20.15-34.9-20.15,34.9-20.15Zm-71.9-1.21-34.9-20.15L1222.7,644l34.91,20.16Zm-2.09,1.21-34.91,20.15-34.9-20.15,34.9-20.15Zm-71.9-1.21L1113.8,664.2,1148.71,644l34.9,20.16Zm-2.1,1.21-34.9,20.15-34.91-20.15,34.91-20.15Zm-71.9-1.21-34.9-20.15,34.9-20.16,34.91,20.16Zm34.91,22.57-37.47,21.63-34.91-20.15,37.47-21.63Zm-2.57,44.2-34.9,20.15-34.91-20.15L1072.15,731Zm0,42.72L1072.15,814l-34.91-20.15,34.91-20.15Zm2.1,1.21L1144,815.2l-34.89,20.15-34.91-20.15Zm2.09-1.21,34.9-20.15,34.9,20.15L1146.14,814Zm71.89,1.21,37.48,21.64-34.91,20.14-37.46-21.63Zm2.1-1.21,37.47-21.64,37.47,21.64-37.47,21.64Zm77,1.21,34.91,20.15-37.48,21.63-34.9-20.14Zm2.09-1.21,34.91-20.15,34.9,20.15L1299.26,814Zm71.9,1.21,34.9,20.15-34.9,20.15-34.9-20.15Zm-34.9-22.57,34.9-20.15,34.9,20.15-34.9,20.15Zm-2.57-44.2,34.91-20.15,37.46,21.63-34.9,20.16Zm0-42.72,34.91-20.15,34.9,20.15-34.9,20.15Zm0-42.73,34.91-20.15,34.9,20.15L1333.69,663Zm-2.09-1.2-34.9-20.15,34.9-20.15,34.9,20.15Zm-2.09,1.2L1259.69,663l-34.9-20.16,34.9-20.15Zm-71.9-1.2-34.9-20.15,34.9-20.15,34.91,20.15Zm-2.09,1.2L1185.7,663l-34.9-20.16,34.9-20.15Zm-71.9-1.2-34.91-20.15,34.91-20.15,34.9,20.15Zm-2.1,1.2L1111.71,663l-34.91-20.16,34.91-20.15Zm-71.9-1.2-34.9-20.15,34.9-20.15,34.91,20.15Zm-2.09,1.2L1037.71,663l-34.89-20.16,34.89-20.15Zm0,42.73-37.47,21.63L1000.25,687l37.46-21.63Zm-2.56,44.2-34.91,20.16-34.9-20.16,34.9-20.15Zm0,42.72-34.91,20.15-34.9-20.15,34.9-20.15Zm0,42.72-34.91,20.15-34.9-20.15,34.9-20.15Zm0,42.72-34.91,20.16-34.9-20.16,34.9-20.15Zm-32.82-21.36,34.91-20.15,34.9,20.15-34.9,20.15Zm71.91,1.21,37.46,21.63-34.9,20.15-37.47-21.63Zm2.09-1.21,34.9-20.15L1183.61,838l-34.9,20.15Zm74.46,2.69,34.91,20.15-34.91,20.15-34.9-20.15Zm2.1-1.21,34.9-20.15L1257.61,838l-34.91,20.15Zm71.89,1.21,34.91,20.15-34.91,20.15-34.9-20.15Zm2.1-1.21,37.47-21.63,34.9,20.15-37.47,21.63Zm74.46-.27,34.9,20.15-37.46,21.63-34.91-20.15Zm2.1-1.21,34.9-20.15,34.9,20.15-34.9,20.15Zm0-42.72,34.9-20.15,34.9,20.15L1373.25,814Zm0-42.71,34.9-20.16,34.9,20.16-34.9,20.14Zm-2.57-44.21,34.9-20.15,37.47,21.63-34.9,20.15Zm0-42.72,34.9-20.16,34.91,20.16-34.91,20.15Zm0-42.72,34.9-20.15,34.91,20.15-34.91,20.15Zm0-42.72,34.9-20.15,34.91,20.15-34.91,20.15Zm32.81,21.36-34.9,20.15-34.91-20.15L1333.69,580Zm-71.9-1.21-34.9-20.15,34.9-20.15,34.9,20.15Zm-2.09,1.21-34.91,20.15-34.9-20.15,34.9-20.15Zm-71.9-1.21-34.9-20.15,34.9-20.15,34.91,20.15Zm-2.09,1.21-34.91,20.15-34.9-20.15L1185.7,580Zm-71.9-1.21-34.91-20.15,34.91-20.15,34.9,20.15Zm-2.1,1.21-34.9,20.15-34.91-20.15L1111.71,580Zm-71.9-1.21-34.9-20.15,34.9-20.15,34.91,20.15Zm-2.09,1.21-34.91,20.15-34.89-20.15L1037.71,580Zm-71.9-1.21-34.9-20.15,34.9-20.15,34.9,20.15Zm34.9,22.57-34.9,20.15-34.9-20.15,34.9-20.15Zm0,42.72-37.47,21.63-34.89-20.15L1000.72,644Zm-2.56,44.2-34.91,20.15L963.26,708.4l34.89-20.15Zm0,42.72-34.91,20.15-34.89-20.15L998.15,731Zm0,42.72L998.15,814l-34.89-20.15,34.89-20.15Zm0,42.72-34.91,20.15-34.89-20.15,34.89-20.15Zm0,42.72-34.91,20.15-34.89-20.15,34.89-20.15Zm2.09,1.21,37.47,21.63-34.91,20.16-37.46-21.64Zm2.09-1.21,34.91-20.15,37.47,21.63-34.91,20.16Zm74.47,2.69,34.9,20.15-34.9,20.16-34.91-20.16Zm2.09-1.21,34.91-20.15,34.9,20.15-34.9,20.16Zm71.9,1.21,34.91,20.16-34.91,20.15-34.9-20.16Zm2.1-1.21,34.9-20.15,34.91,20.15-34.91,20.16Zm71.89,1.21,34.91,20.16-34.91,20.15-34.9-20.15Zm2.1-1.21,34.9-20.15,34.9,20.15-34.9,20.16Zm71.9,1.21,34.9,20.16-34.9,20.15-34.91-20.15Zm2.09-1.21,37.47-21.63,34.9,20.15-37.47,21.64Zm74.46-.27,34.91,20.15-37.47,21.64-34.91-20.15Zm-34.9-22.57,34.9-20.15,34.91,20.15-34.91,20.16Zm0-42.72,34.9-20.15,34.91,20.15-34.91,20.15Zm0-42.72,34.9-20.15,34.91,20.15-34.91,20.15Zm0-42.72,34.9-20.15,34.91,20.15-34.91,20.16Zm-2.57-44.2,34.91-20.15L1445.15,687l-34.91,20.15Zm0-42.73,34.91-20.15,34.9,20.15L1407.68,663Zm0-42.71L1407.68,580l34.9,20.15-34.9,20.15Zm0-42.72,34.91-20.16,34.9,20.16-34.9,20.15Zm-2.09-1.21L1335.78,536l34.9-20.16L1405.59,536Zm-2.09,1.21-34.9,20.15-34.91-20.15,34.91-20.16Zm-71.9-1.21L1261.79,536l34.9-20.16,34.9,20.16Zm-2.09,1.21-34.91,20.15-34.9-20.15,34.9-20.16Zm-71.9-1.21L1187.8,536l34.9-20.16L1257.61,536Zm-2.09,1.21-34.91,20.15-34.9-20.15,34.9-20.16Zm-71.9-1.21L1113.8,536l34.91-20.16,34.9,20.16Zm-2.1,1.21-34.9,20.15L1076.8,557.4l34.91-20.16Zm-71.9-1.21L1039.81,536l34.9-20.16L1109.62,536Zm-2.09,1.21-34.91,20.15-34.89-20.15,34.89-20.16Zm-71.9-1.21L965.82,536l34.9-20.16,34.9,20.16Zm-2.09,1.21-34.9,20.15L928.82,557.4l34.91-20.16Zm0,42.72-34.9,20.15-34.91-20.15L963.73,580Zm0,42.71-37.47,21.64-34.9-20.14,37.47-21.65ZM996.06,687l-34.9,20.15L926.26,687l34.9-20.15Zm0,42.72-34.9,20.16-34.9-20.16,34.9-20.15Zm0,42.72-34.9,20.15-34.9-20.15,34.9-20.15Zm0,42.72-34.9,20.15-34.9-20.15,34.9-20.15Zm0,42.72-34.9,20.16-34.9-20.16,34.9-20.15Zm0,42.72-34.9,20.15-34.9-20.15,34.9-20.15Zm2.57,44.2L963.73,965l-37.47-21.63,34.9-20.15ZM963.26,922l34.89-20.15,37.47,21.64-34.9,20.15Zm74.45,2.7,34.91,20.14L1037.71,965l-34.89-20.15Zm2.1-1.21,34.9-20.17,34.91,20.17-34.91,20.15Zm71.9,1.21,34.9,20.14L1111.71,965l-34.91-20.15Zm2.09-1.21,34.91-20.17,34.9,20.17-34.9,20.15Zm71.9,1.21,34.91,20.14L1185.7,965l-34.9-20.15Zm2.1-1.21,34.9-20.17,34.91,20.17-34.91,20.15Zm71.89,1.21,34.91,20.14L1259.69,965l-34.9-20.15Zm2.1-1.21,34.9-20.17,34.9,20.17-34.9,20.15Zm71.9,1.21,34.9,20.14L1333.69,965l-34.91-20.15Zm2.09-1.21,34.9-20.17,34.91,20.17-34.91,20.15Zm71.9,1.21,34.9,20.14L1407.68,965l-34.91-20.15Zm2.09-1.21,37.47-21.64,34.9,20.15-37.47,21.64Zm2.56-44.21,34.91-20.15,34.9,20.15-34.9,20.15Zm0-42.72,34.91-20.15,34.9,20.15-34.9,20.15Zm0-42.72,34.91-20.15,34.9,20.15L1447.24,814Zm0-42.71L1447.24,731l34.9,20.16-34.9,20.14Zm0-42.73,34.91-20.15,34.9,20.15-34.9,20.15Zm-2.56-44.2,34.9-20.16,37.47,21.64-34.9,20.15Zm0-42.72,34.9-20.15,34.9,20.15-34.9,20.15Zm0-42.72,34.9-20.15,34.9,20.15-34.9,20.15Zm0-42.72,34.9-20.16,34.9,20.16-34.9,20.15Zm0-42.72,34.9-20.15,34.9,20.15-34.9,20.15Zm32.81,21.36-34.9,20.15-34.91-20.15,34.91-20.15Zm-71.9-1.21-34.9-20.15,34.9-20.15,34.91,20.15Zm-2.09,1.21-34.9,20.15-34.91-20.15,34.91-20.15Zm-71.9-1.21-34.9-20.15,34.9-20.15,34.9,20.15Zm-2.09,1.21-34.91,20.15-34.9-20.15,34.9-20.15Zm-71.9-1.21-34.9-20.15,34.9-20.15,34.91,20.15Zm-2.09,1.21-34.91,20.15-34.9-20.15,34.9-20.15Zm-71.9-1.21-34.91-20.15,34.91-20.15,34.9,20.15Zm-2.1,1.21-34.9,20.15-34.91-20.15,34.91-20.15Zm-71.9-1.21-34.9-20.15,34.9-20.15,34.91,20.15Zm-2.09,1.21-34.91,20.15-34.89-20.15,34.89-20.15Zm-71.9-1.21-34.9-20.15,34.9-20.15,34.9,20.15Zm-2.09,1.21-34.9,20.15-34.91-20.15,34.91-20.15Zm-71.9-1.21-34.91-20.15,34.91-20.15,34.9,20.15ZM961.63,536l-34.9,20.15L891.82,536l34.91-20.16Zm0,42.72-34.9,20.15-34.91-20.15,34.91-20.15Zm0,42.72-37.46,21.64L889.26,623l37.47-21.62Zm-2.57,44.2-34.89,20.15-34.91-20.15,34.91-20.16Zm0,42.72-34.89,20.15L889.26,708.4l34.91-20.15Zm0,42.72-34.89,20.15-34.91-20.15L924.17,731Zm0,42.72L924.17,814l-34.91-20.15,34.91-20.15Zm0,42.72-34.89,20.15-34.91-20.15,34.91-20.15Zm0,42.72-34.89,20.15-34.91-20.15,34.91-20.15Zm0,42.72-34.89,20.15L889.26,922l34.91-20.15Zm2.57,44.2-34.9,20.15-37.47-21.63,34.91-20.15Zm2.1,1.21,34.9,20.15-34.9,20.15-34.91-20.15Zm2.09-1.21,34.9-20.15,34.9,20.15-34.9,20.15Zm71.89,1.21,34.91,20.15-34.91,20.15-34.89-20.15Zm2.1-1.21,34.9-20.15,34.91,20.15-34.91,20.15Zm71.9,1.21,34.9,20.15-34.9,20.15-34.91-20.15Zm2.09-1.21,34.91-20.15,34.9,20.15-34.9,20.15Zm71.9,1.21,34.91,20.15-34.91,20.15-34.9-20.15Zm2.1-1.21,34.9-20.15,34.91,20.15-34.91,20.15Zm71.89,1.21,34.91,20.15-34.91,20.15-34.9-20.15Zm2.1-1.21,34.9-20.15,34.9,20.15-34.9,20.15Zm71.9,1.21,34.9,20.15-34.9,20.15-34.91-20.15Zm2.09-1.21,34.9-20.15,34.91,20.15-34.91,20.15Zm71.9,1.21,34.9,20.15-34.9,20.15-34.91-20.15Zm2.09-1.21,34.9-20.15,34.9,20.15-34.9,20.15Zm71.9,1.21,34.9,20.15-34.9,20.15-34.9-20.15Zm-34.9-22.57,37.47-21.63,34.9,20.15L1481.67,965Zm2.56-44.2,34.91-20.15,34.9,20.15-34.9,20.15Zm0-42.72,34.91-20.15,34.9,20.15-34.9,20.16Zm0-42.72,34.91-20.15,34.9,20.15-34.9,20.15Zm0-42.72,34.91-20.15,34.9,20.15-34.9,20.15Zm0-42.72,34.91-20.15,34.9,20.15-34.9,20.16Zm0-42.72,34.91-20.15,34.9,20.15-34.9,20.15Zm-2.56-44.21,34.9-20.15,37.47,21.65-34.9,20.14Zm0-42.71,34.9-20.15,34.9,20.15-34.9,20.15Zm0-42.72,34.9-20.16,34.9,20.16-34.9,20.15Zm0-42.72,34.9-20.15,34.9,20.15-34.9,20.15Zm0-42.72,34.9-20.15,34.9,20.15-34.9,20.15Zm-2.1-1.21-34.9-20.15,34.9-20.16,34.9,20.16Zm-2.09,1.21-34.9,20.15L1372.77,472l34.91-20.15Zm-71.9-1.21-34.9-20.15,34.9-20.16,34.91,20.16Zm-2.09,1.21-34.9,20.15L1298.78,472l34.91-20.15Zm-71.9-1.21-34.9-20.15,34.9-20.16,34.9,20.16ZM1294.6,472l-34.91,20.15L1224.79,472l34.9-20.15Zm-71.9-1.21-34.9-20.15,34.9-20.16,34.91,20.16Zm-2.09,1.21-34.91,20.15L1150.8,472l34.9-20.15Zm-71.9-1.21L1113.8,450.6l34.91-20.16,34.9,20.16Zm-2.1,1.21-34.9,20.15L1076.8,472l34.91-20.15Zm-71.9-1.21-34.9-20.15,34.9-20.16,34.91,20.16Zm-2.09,1.21-34.91,20.15L1002.82,472l34.89-20.15Zm-71.9-1.21-34.9-20.15,34.9-20.16,34.9,20.16ZM998.63,472l-34.9,20.15L928.82,472l34.91-20.15Zm-71.9-1.21L891.82,450.6l34.91-20.16,34.9,20.16ZM924.64,472l-34.91,20.15L854.83,472l34.9-20.15Zm0,42.72-34.91,20.15-34.9-20.15,34.9-20.15Zm0,42.72-34.91,20.15-34.9-20.15,34.9-20.16Zm0,42.72-37.47,21.63L852.26,601.6,889.73,580Zm-2.57,44.21-34.9,20.14-34.91-20.14,34.91-20.17Zm0,42.71-34.9,20.15L852.26,687l34.91-20.15Zm0,42.72-34.9,20.16-34.91-20.16,34.91-20.15Zm0,42.72-34.9,20.15-34.91-20.15,34.91-20.15Zm0,42.72-34.9,20.15L852.26,815.2l34.91-20.15Zm0,42.72-34.9,20.16-34.91-20.16,34.91-20.15Zm0,42.72-34.9,20.15-34.91-20.15,34.91-20.15Zm0,42.72-34.9,20.15-34.91-20.15,34.91-20.15Zm2.57,44.2-34.91,20.15-37.47-21.63,34.91-20.15Zm0,42.73-34.91,20.15-34.9-20.15,34.9-20.16Zm-32.82-21.37,34.91-20.15,34.9,20.15-34.9,20.16Zm71.91,1.21,34.9,20.16-34.9,20.15-34.91-20.15Zm2.09-1.21,34.9-20.15,34.9,20.15-34.9,20.16Zm71.89,1.21,34.91,20.16-34.91,20.15-34.89-20.15Zm2.1-1.21,34.9-20.15,34.91,20.15-34.91,20.16Zm71.9,1.21,34.9,20.16-34.9,20.15-34.91-20.15Zm2.09-1.21,34.91-20.15,34.9,20.15-34.9,20.16Zm71.9,1.21,34.91,20.16-34.91,20.15-34.9-20.15Zm2.1-1.21,34.9-20.15,34.91,20.15-34.91,20.16Zm71.89,1.21,34.91,20.16-34.91,20.15-34.9-20.15Zm2.1-1.21,34.9-20.15,34.9,20.15-34.9,20.16Zm71.9,1.21,34.9,20.16-34.9,20.15-34.91-20.15Zm2.09-1.21,34.9-20.15,34.91,20.15-34.91,20.16Zm71.9,1.21,34.9,20.16-34.9,20.15-34.91-20.15Zm2.09-1.21,34.9-20.15,34.9,20.15-34.9,20.16Zm71.9,1.21,34.9,20.16-34.9,20.15-34.9-20.15Zm2.08-1.21,34.91-20.15,34.91,20.15-34.91,20.16Zm0-42.72,37.48-21.63,34.91,20.15-37.48,21.63Zm2.58-44.2,34.9-20.15L1556.14,922l-34.91,20.15Zm0-42.72,34.9-20.15,34.91,20.15-34.91,20.15Zm0-42.72,34.9-20.15,34.91,20.15-34.91,20.15Zm0-42.72,34.9-20.15,34.91,20.15L1521.23,814Zm0-42.71,34.9-20.16,34.91,20.16-34.91,20.14Zm0-42.73,34.9-20.15,34.91,20.15-34.91,20.15Zm0-42.72,34.9-20.16,34.91,20.16-34.91,20.15Zm-2.58-44.2,34.91-20.15L1556.14,623l-34.91,20.17Zm0-42.72,34.91-20.15,34.91,20.15-34.91,20.15Zm0-42.72,34.91-20.16L1553.57,536l-34.91,20.15Zm0-42.72,34.91-20.15,34.91,20.15-34.91,20.15Zm0-42.72,34.91-20.16,34.91,20.16-34.91,20.15Zm0-42.72,34.91-20.16,34.91,20.16L1518.66,428Zm32.82,21.36-34.9,20.15-34.9-20.15,34.9-20.16Zm-71.9-1.21-34.9-20.15,34.9-20.16,34.9,20.16Zm-2.09,1.21-34.9,20.15-34.91-20.15,34.91-20.16Zm-71.9-1.21-34.9-20.15,34.9-20.16,34.91,20.16Zm-2.09,1.21-34.9,20.15-34.91-20.15,34.91-20.16Zm-71.9-1.21-34.9-20.15,34.9-20.16,34.9,20.16Zm-2.09,1.21-34.91,20.15-34.9-20.15,34.9-20.16ZM1222.7,428l-34.9-20.15,34.9-20.16,34.91,20.16Zm-2.09,1.21-34.91,20.15-34.9-20.15,34.9-20.16Zm-71.9-1.21-34.91-20.15,34.91-20.16,34.9,20.16Zm-2.1,1.21-34.9,20.15-34.91-20.15,34.91-20.16Zm-71.9-1.21-34.9-20.15,34.9-20.16,34.91,20.16Zm-2.09,1.21-34.91,20.15-34.89-20.15,34.89-20.16Zm-71.9-1.21-34.9-20.15,34.9-20.16,34.9,20.16Zm-2.09,1.21-34.9,20.15-34.91-20.15,34.91-20.16ZM926.73,428l-34.91-20.15,34.91-20.16,34.9,20.16Zm-2.09,1.21-34.91,20.15-34.9-20.15,34.9-20.16ZM852.74,428l-34.9-20.15,34.9-20.16,34.91,20.16Zm34.91,22.57-34.91,20.15-34.9-20.15,34.9-20.16Zm0,42.72-34.91,20.15-34.9-20.15,34.9-20.15Zm0,42.72-34.91,20.15L817.84,536l34.9-20.16Zm0,42.72-37.48,21.63-34.9-20.15,37.47-21.63ZM885.08,623l-34.91,20.17L815.27,623l34.9-20.14Zm0,42.73-34.91,20.15-34.9-20.15,34.9-20.16Zm0,42.72-34.91,20.15-34.9-20.15,34.9-20.15Zm0,42.72-34.91,20.15-34.9-20.15L850.17,731Zm0,42.72L850.17,814l-34.9-20.15,34.9-20.15Zm0,42.72-34.91,20.15-34.9-20.15,34.9-20.15Zm0,42.72-34.91,20.15-34.9-20.15,34.9-20.15Zm0,42.72-34.91,20.15L815.27,922l34.9-20.15Zm0,42.72-34.91,20.15-34.9-20.15,34.9-20.15Zm2.57,44.2-34.91,20.16-37.47-21.64,34.9-20.15Zm0,42.72-34.91,20.15-34.9-20.15,34.9-20.15Zm2.08,1.21L924.64,1073l-34.91,20.15L854.83,1073Zm2.09-1.21,34.91-20.15,34.9,20.15-34.9,20.15Zm71.91,1.21,34.9,20.15-34.9,20.15L928.82,1073Zm2.09-1.21,34.9-20.15,34.9,20.15-34.9,20.15Zm71.89,1.21,34.91,20.15-34.91,20.15L1002.82,1073Zm2.1-1.21,34.9-20.15,34.91,20.15-34.91,20.15Zm71.9,1.21,34.9,20.15-34.9,20.15L1076.8,1073Zm2.09-1.21,34.91-20.15,34.9,20.15-34.9,20.15Zm71.9,1.21,34.91,20.15-34.91,20.15L1150.8,1073Zm2.1-1.21,34.9-20.15,34.91,20.15-34.91,20.15Zm71.89,1.21L1294.6,1073l-34.91,20.15-34.9-20.15Zm2.1-1.21,34.9-20.15,34.9,20.15-34.9,20.15Zm71.9,1.21,34.9,20.15-34.9,20.15L1298.78,1073Zm2.09-1.21,34.9-20.15,34.91,20.15-34.91,20.15Zm71.9,1.21,34.9,20.15-34.9,20.15L1372.77,1073Zm2.09-1.21,34.9-20.15,34.9,20.15-34.9,20.15Zm71.9,1.21,34.9,20.15-34.9,20.15-34.9-20.15Zm2.08-1.21,34.91-20.15,34.91,20.15-34.91,20.15Zm71.9,1.21,34.91,20.15-34.91,20.15L1520.76,1073Zm-34.89-22.56,34.89-20.16,34.91,20.16-34.91,20.15Zm0-42.73,37.47-21.63,34.9,20.15-37.48,21.63Zm2.56-44.2,34.91-20.15,34.9,20.15-34.9,20.15Zm0-42.72,34.91-20.15,34.9,20.15-34.9,20.15Zm0-42.72,34.91-20.15,34.9,20.15-34.9,20.16Zm0-42.72,34.91-20.15,34.9,20.15-34.9,20.15Zm0-42.72,34.91-20.15,34.9,20.15-34.9,20.15Zm0-42.72,34.91-20.15,34.9,20.15-34.9,20.16Zm0-42.72,34.91-20.15,34.9,20.15-34.9,20.15Zm0-42.71,34.91-20.17,34.9,20.17-34.9,20.14Zm-2.56-44.21L1555.65,580l37.48,21.63-34.9,20.16Zm0-42.72,34.89-20.16,34.91,20.16-34.91,20.15Zm0-42.72,34.89-20.15,34.92,20.15-34.92,20.15Zm0-42.72,34.89-20.15L1590.57,472l-34.92,20.15Zm0-42.72,34.89-20.16,34.92,20.16-34.92,20.15Zm0-42.73,34.89-20.15,34.92,20.15-34.92,20.16Zm-2.1-1.2-34.91-20.16L1518.66,345l34.91,20.15Zm-2.09,1.2-34.9,20.16-34.9-20.16,34.9-20.15Zm-71.9-1.2-34.9-20.16,34.9-20.15,34.9,20.15Zm-2.09,1.2-34.9,20.16-34.91-20.16,34.91-20.15Zm-71.9-1.2-34.9-20.16,34.9-20.15,34.91,20.15Zm-2.09,1.2-34.9,20.16-34.91-20.16,34.91-20.15Zm-71.9-1.2-34.9-20.16,34.9-20.15,34.9,20.15Zm-2.09,1.2-34.91,20.16-34.9-20.16,34.9-20.15Zm-71.9-1.2-34.9-20.16L1222.7,345l34.91,20.15Zm-2.09,1.2-34.91,20.16-34.9-20.16,34.9-20.15Zm-71.9-1.2-34.91-20.16L1148.71,345l34.9,20.15Zm-2.1,1.2-34.9,20.16-34.91-20.16,34.91-20.15Zm-71.9-1.2-34.9-20.16,34.9-20.15,34.91,20.15Zm-2.09,1.2-34.91,20.16-34.89-20.16,34.89-20.15Zm-71.9-1.2-34.9-20.16,34.9-20.15,34.9,20.15Zm-2.09,1.2-34.9,20.16-34.91-20.16,34.91-20.15Zm-71.9-1.2-34.91-20.16L926.73,345l34.9,20.15Zm-2.09,1.2-34.91,20.16-34.9-20.16,34.9-20.15Zm-71.9-1.2-34.9-20.16L852.74,345l34.91,20.15Zm-2.08,1.2-34.92,20.16-34.89-20.16,34.89-20.15Zm0,42.73-34.92,20.15-34.89-20.15,34.89-20.16Zm0,42.72-34.92,20.15L780.85,472l34.89-20.15Zm0,42.72-34.92,20.15-34.89-20.15,34.89-20.15Zm0,42.72L813.17,579l-34.89-20.15,37.46-21.64Zm-2.57,44.2-34.92,20.15L778.28,601.6l34.89-20.15Zm0,42.73-34.92,20.14-34.89-20.14,34.89-20.17Zm0,42.71-34.92,20.15L778.28,687l34.89-20.15Zm0,42.72-34.92,20.16-34.89-20.16,34.89-20.15Zm0,42.72-34.92,20.15-34.89-20.15,34.89-20.15Zm0,42.72-34.92,20.15L778.28,815.2l34.89-20.15Zm0,42.72-34.92,20.16-34.89-20.16,34.89-20.15Zm0,42.72-34.92,20.15-34.89-20.15,34.89-20.15Zm0,42.72-34.92,20.15-34.89-20.15,34.89-20.15Zm0,42.72-34.92,20.15-34.89-20.15,34.89-20.15Zm2.57,44.21-34.92,20.15-37.46-21.63,34.89-20.16Zm0,42.71-34.92,20.15L780.85,1073l34.89-20.15Zm0,42.72-34.92,20.15-34.89-20.15,34.89-20.15Zm-32.82-21.36,34.9-20.15,34.91,20.15-34.91,20.15Zm71.89,1.21,34.91,20.15-34.91,20.15-34.9-20.15Zm2.09-1.21,34.91-20.15,34.9,20.15-34.9,20.15Zm71.91,1.21,34.9,20.15-34.9,20.15-34.91-20.15Zm2.09-1.21,34.9-20.15,34.9,20.15-34.9,20.15Zm71.89,1.21,34.91,20.15-34.91,20.15-34.89-20.15Zm2.1-1.21,34.9-20.15,34.91,20.15-34.91,20.15Zm71.9,1.21,34.9,20.15-34.9,20.15-34.91-20.15Zm2.09-1.21,34.91-20.15,34.9,20.15-34.9,20.15Zm71.9,1.21,34.91,20.15-34.91,20.15-34.9-20.15Zm2.1-1.21,34.9-20.15,34.91,20.15-34.91,20.15Zm71.89,1.21,34.91,20.15-34.91,20.15-34.9-20.15Zm2.1-1.21,34.9-20.15,34.9,20.15-34.9,20.15Zm71.9,1.21,34.9,20.15-34.9,20.15-34.91-20.15Zm2.09-1.21,34.9-20.15,34.91,20.15-34.91,20.15Zm71.9,1.21,34.9,20.15-34.9,20.15-34.91-20.15Zm2.09-1.21,34.9-20.15,34.9,20.15-34.9,20.15Zm71.9,1.21,34.9,20.15-34.9,20.15-34.9-20.15Zm2.08-1.21,34.91-20.15,34.91,20.15-34.91,20.15Zm71.9,1.21,34.91,20.15-34.91,20.15-34.89-20.15Zm2.1-1.21,34.91-20.15,34.9,20.15-34.9,20.15Zm0-42.72,34.91-20.15,34.9,20.15-34.9,20.15Zm0-42.72,37.48-21.63,34.9,20.15-37.47,21.64Zm2.57-44.2,34.91-20.15,34.9,20.15-34.9,20.15Zm0-42.72,34.91-20.15,34.9,20.15-34.9,20.15Zm0-42.72,34.91-20.15,34.9,20.15-34.9,20.15Zm0-42.72,34.91-20.15,34.9,20.15-34.9,20.15Zm0-42.72,34.91-20.15,34.9,20.15L1595.23,814Zm0-42.71L1595.23,731l34.9,20.16-34.9,20.14Zm0-42.73,34.91-20.15,34.9,20.15-34.9,20.15Zm0-42.72,34.91-20.16,34.9,20.16-34.9,20.15Zm0-42.73,34.91-20.14,34.9,20.14-34.9,20.17Zm-2.57-44.19,34.91-20.15,37.47,21.63-34.9,20.15Zm0-42.72,34.91-20.16,34.9,20.16-34.9,20.15Zm0-42.72,34.91-20.15,34.9,20.15-34.9,20.15Zm0-42.72,34.91-20.16,34.9,20.16-34.9,20.15Zm0-42.72,34.91-20.16,34.9,20.16L1592.66,428Zm0-42.73L1592.66,345l34.9,20.15-34.9,20.16Zm0-42.71,38.76-22.38,34.91,20.16-38.76,22.36Zm32.82,21.35L1555.65,364l-34.89-20.17,34.89-20.15Zm-71.91-1.21-34.91-20.14,34.91-20.15,34.91,20.15Zm-2.09,1.21L1481.67,364l-34.9-20.17,34.9-20.15Zm-71.9-1.21-34.9-20.14,34.9-20.15,34.9,20.15Zm-2.09,1.21L1407.68,364l-34.91-20.17,34.91-20.15Zm-71.9-1.21-34.9-20.14,34.9-20.15,34.91,20.15Zm-2.09,1.21L1333.69,364l-34.91-20.17,34.91-20.15Zm-71.9-1.21-34.9-20.14,34.9-20.15,34.9,20.15Zm-2.09,1.21L1259.69,364l-34.9-20.17,34.9-20.15Zm-71.9-1.21-34.9-20.14,34.9-20.15,34.91,20.15Zm-2.09,1.21L1185.7,364l-34.9-20.17,34.9-20.15Zm-71.9-1.21-34.91-20.14,34.91-20.15,34.9,20.15Zm-2.1,1.21L1111.71,364l-34.91-20.17,34.91-20.15Zm-71.9-1.21-34.9-20.14,34.9-20.15,34.91,20.15Zm-2.09,1.21L1037.71,364l-34.89-20.17,34.89-20.15Zm-71.9-1.21-34.9-20.14,34.9-20.15,34.9,20.15Zm-2.09,1.21L963.73,364l-34.91-20.17,34.91-20.15Zm-71.9-1.21-34.91-20.14,34.91-20.15,34.9,20.15Zm-2.09,1.21L889.73,364l-34.9-20.17,34.9-20.15Zm-71.9-1.21L814,320.22l34.9-20.16,38.76,22.38Zm-2.08,1.21L815.74,364,777,341.58l34.89-20.16Zm-75.76-3.42L740,320.22l34.9-20.16,34.9,20.16Zm38.76,24.78-34.91,20.16L740,362.93l34.9-20.16Zm0,42.73L778.75,428l-34.91-20.15,34.91-20.16Zm0,42.72-34.91,20.15L743.84,450.6l34.91-20.16Zm0,42.72-34.91,20.15-34.91-20.15,34.91-20.15Zm0,42.72-37.48,21.63-34.9-20.15,37.47-21.64Zm-2.58,44.2-34.9,20.15-34.9-20.15,34.9-20.15Zm0,42.71-34.9,20.17L741.28,623l34.9-20.14Zm0,42.73-34.9,20.15-34.9-20.15,34.9-20.16Zm0,42.72-34.9,20.15-34.9-20.15,34.9-20.15Zm0,42.72-34.9,20.15-34.9-20.15L776.18,731Zm0,42.72L776.18,814l-34.9-20.15,34.9-20.15Zm0,42.72-34.9,20.15-34.9-20.15,34.9-20.15Zm0,42.72-34.9,20.15-34.9-20.15,34.9-20.15Zm0,42.72-34.9,20.15L741.28,922l34.9-20.15Zm0,42.72-34.9,20.15-34.9-20.15,34.9-20.15Zm0,42.72-34.9,20.16-34.9-20.16,34.9-20.15Zm2.58,44.2-34.91,20.15-37.47-21.62,34.9-20.17Zm0,42.72-34.91,20.15-34.91-20.15,34.91-20.15Zm0,42.72-34.91,20.16-34.91-20.16,34.91-20.15Zm2.08,1.21,34.92,20.16-34.92,20.14-34.89-20.14Zm2.1-1.21,34.9-20.15,34.91,20.15-34.91,20.16Zm71.89,1.21,34.91,20.16-34.91,20.14-34.9-20.14Zm2.09-1.21,34.91-20.15,34.9,20.15-34.9,20.16Zm71.91,1.21,34.9,20.16-34.9,20.14-34.91-20.14Zm2.09-1.21,34.9-20.15,34.9,20.15-34.9,20.16Zm71.89,1.21,34.91,20.16-34.91,20.14-34.89-20.14Zm2.1-1.21,34.9-20.15,34.91,20.15-34.91,20.16Zm71.9,1.21,34.9,20.16-34.9,20.14-34.91-20.14Zm2.09-1.21,34.91-20.15,34.9,20.15-34.9,20.16Zm71.9,1.21,34.91,20.16-34.91,20.14-34.9-20.14Zm2.1-1.21,34.9-20.15,34.91,20.15-34.91,20.16Zm71.89,1.21,34.91,20.16-34.91,20.14-34.9-20.14Zm2.1-1.21,34.9-20.15,34.9,20.15-34.9,20.16Zm71.9,1.21,34.9,20.16-34.9,20.14-34.91-20.14Zm2.09-1.21,34.9-20.15,34.91,20.15-34.91,20.16Zm71.9,1.21,34.9,20.16-34.9,20.14-34.91-20.14Zm2.09-1.21,34.9-20.15,34.9,20.15-34.9,20.16Zm71.9,1.21,34.9,20.16-34.9,20.14-34.9-20.14Zm2.08-1.21,34.91-20.15,34.91,20.15-34.91,20.16Zm71.9,1.21,34.91,20.16-34.91,20.14-34.89-20.14Zm2.1-1.21,34.91-20.15,34.9,20.15-34.9,20.16Zm71.89,1.21,34.91,20.16-34.91,20.14-34.9-20.14Zm-34.9-22.57,34.9-20.15,34.91,20.15-34.91,20.15Zm0-42.72,34.9-20.15,34.91,20.15-34.91,20.15Zm0-42.71,37.48-21.64,34.9,20.16-37.48,21.63Zm2.58-44.21,34.9-20.15,34.9,20.15-34.9,20.15Zm0-42.72,34.9-20.15,34.9,20.15-34.9,20.15Zm0-42.72,34.9-20.15,34.9,20.15-34.9,20.15Zm0-42.72,34.9-20.15,34.9,20.15-34.9,20.16Zm0-42.72,34.9-20.15,34.9,20.15-34.9,20.15Zm0-42.72,34.9-20.15,34.9,20.15-34.9,20.15Zm0-42.72,34.9-20.15,34.9,20.15-34.9,20.16Zm0-42.72,34.9-20.15,34.9,20.15-34.9,20.15Zm0-42.71,34.9-20.17,34.9,20.17-34.9,20.14Zm0-42.73,34.9-20.15,34.9,20.15-34.9,20.16Zm-2.58-44.2,34.9-20.16,37.48,21.64L1632.22,579Zm0-42.72,34.9-20.15,34.91,20.15-34.91,20.15Zm0-42.72,34.9-20.15L1664.55,472l-34.91,20.15Zm0-42.72,34.9-20.16,34.91,20.16-34.91,20.15Zm0-42.73,34.9-20.15,34.91,20.15-34.91,20.16Zm0-42.72,38.76-22.37,34.9,20.16L1629.64,364Zm3.86-44.94,34.9-20.15,34.9,20.15L1633.5,319Zm-2.09-1.2-34.91-20.16,34.91-20.15,34.91,20.15Zm-2.1,1.2-38.76,22.38-34.89-20.15,38.76-22.38Zm-75.75,1-34.91-20.15,38.76-22.38,34.91,20.15Zm-2.09,1.21-34.9,20.15-34.9-20.15,34.9-20.16Zm-71.9-1.21-34.9-20.15,34.9-20.16,34.9,20.16Zm-2.09,1.21-34.9,20.15-34.91-20.15,34.91-20.16Zm-71.9-1.21-34.9-20.15,34.9-20.16,34.91,20.16Zm-2.09,1.21-34.9,20.15-34.91-20.15,34.91-20.16Zm-71.9-1.21-34.9-20.15,34.9-20.16,34.9,20.16Zm-2.09,1.21-34.91,20.15-34.9-20.15,34.9-20.16Zm-71.9-1.21-34.9-20.15,34.9-20.16,34.91,20.16Zm-2.09,1.21-34.91,20.15-34.9-20.15,34.9-20.16Zm-71.9-1.21-34.91-20.15,34.91-20.16,34.9,20.16Zm-2.1,1.21-34.9,20.15-34.91-20.15,34.91-20.16Zm-71.9-1.21-34.9-20.15,34.9-20.16,34.91,20.16Zm-2.09,1.21-34.91,20.15-34.89-20.15,34.89-20.16Zm-71.9-1.21-34.9-20.15,34.9-20.16,34.9,20.16Zm-2.09,1.21-34.9,20.15-34.91-20.15,34.91-20.16Zm-71.9-1.21L888,277.49l34.92-20.15,38.74,22.38Zm-2.09,1.21-34.91,20.15L851,298.85l34.92-20.15Zm-75.75-3.43L814,277.49l34.9-20.15,34.91,20.15Zm-2.09,1.2L811.88,319,777,298.85l34.89-20.15Zm-71.9-1.2L740,277.49l34.9-20.15,34.9,20.15Zm-2.1,1.2L737.9,319,703,298.85l34.9-20.15Zm0,42.73-34.9,20.15L703,341.58l34.9-20.16Zm3.85,44.93-34.89,20.16L703,384.29l34.9-20.15Zm0,42.73-34.89,20.15-34.91-20.15,34.91-20.16Zm0,42.72-34.89,20.15L706.85,472l34.91-20.15Zm0,42.72-37.46,21.64-34.91-20.15,37.48-21.64Zm-2.57,44.2L739.19,579l-34.91-20.15,34.91-20.15Zm0,42.72-34.89,20.15L704.28,601.6l34.91-20.15Zm0,42.73-34.89,20.14-34.91-20.14,34.91-20.17Zm0,42.71-34.91,20.15L704.28,687l34.91-20.15Zm0,42.72-34.91,20.16-34.91-20.16,34.91-20.15Zm0,42.72-34.91,20.15-34.91-20.15,34.91-20.15Zm0,42.72-34.91,20.15L704.28,815.2l34.91-20.15Zm0,42.72-34.91,20.16-34.91-20.16,34.91-20.15Zm0,42.72-34.91,20.15-34.91-20.15,34.91-20.15Zm0,42.72-34.91,20.15-34.91-20.15,34.91-20.15Zm0,42.72-34.91,20.15-34.91-20.15,34.91-20.15Zm0,42.73L739.19,1049l-34.91-20.14,34.91-20.16Zm2.55,44.19-34.89,20.15-37.48-21.63,34.91-20.15Zm0,42.72-34.89,20.15-34.91-20.15,34.91-20.15Zm0,42.73-34.89,20.14-34.91-20.14,34.91-20.16Zm0,42.71-38.75,22.37L703,1203.38,741.76,1181Zm-32.81-21.36,34.91-20.15,34.91,20.15L778.75,1200Zm71.9,1.21,34.92,20.15-34.92,20.15-34.89-20.15Zm2.1-1.21,34.9-20.15,34.91,20.15L852.74,1200Zm71.89,1.21,34.91,20.15-34.91,20.15-34.9-20.15Zm2.09-1.21,34.91-20.15,34.9,20.15L926.73,1200Zm71.91,1.21,34.9,20.15-34.9,20.15-34.91-20.15Zm2.09-1.21,34.9-20.15,34.9,20.15-34.9,20.15Zm71.89,1.21,34.91,20.15-34.91,20.15-34.89-20.15Zm2.1-1.21,34.9-20.15,34.91,20.15L1074.71,1200Zm71.9,1.21,34.9,20.15-34.9,20.15-34.91-20.15Zm2.09-1.21,34.91-20.15,34.9,20.15-34.9,20.15Zm71.9,1.21,34.91,20.15-34.91,20.15-34.9-20.15Zm2.1-1.21,34.9-20.15,34.91,20.15L1222.7,1200Zm71.89,1.21,34.91,20.15-34.91,20.15-34.9-20.15Zm2.1-1.21,34.9-20.15,34.9,20.15-34.9,20.15Zm71.9,1.21,34.9,20.15-34.9,20.15-34.91-20.15Zm2.09-1.21,34.9-20.15,34.91,20.15L1370.68,1200Zm71.9,1.21,34.9,20.15-34.9,20.15-34.91-20.15Zm2.09-1.21,34.9-20.15,34.9,20.15-34.9,20.15Zm71.9,1.21,34.9,20.15-34.9,20.15-34.9-20.15Zm2.08-1.21,34.91-20.15,34.91,20.15L1518.66,1200Zm71.9,1.21,34.91,20.15-34.91,20.15-34.89-20.15Zm2.1-1.21,34.91-20.15,34.9,20.15-34.9,20.15Zm71.89,1.21,34.91,20.15-34.91,20.15-34.9-20.15Zm2.1-1.21,34.91-20.15,34.89,20.15L1666.65,1200Zm0-42.72,34.91-20.15,34.89,20.15-34.89,20.16Zm0-42.72,34.91-20.15,34.89,20.15-34.89,20.15Zm0-42.72,37.48-21.64,34.9,20.17-37.47,21.62Zm2.56-44.2,34.92-20.15,34.9,20.15-34.9,20.16Zm0-42.72,34.92-20.15,34.9,20.15-34.9,20.15Zm0-42.72,34.92-20.15,34.9,20.15-34.9,20.15Zm0-42.72,34.92-20.15,34.9,20.15-34.9,20.15Zm0-42.72,34.92-20.15,34.9,20.15-34.9,20.15Zm0-42.72,34.92-20.15,34.9,20.15L1669.22,814Zm0-42.71L1669.22,731l34.9,20.16-34.9,20.14Zm0-42.73,34.92-20.15,34.9,20.15-34.9,20.15Zm0-42.72,34.92-20.16,34.9,20.16-34.9,20.15Zm0-42.73,34.92-20.14,34.9,20.14-34.9,20.17Zm0-42.71,34.92-20.15,34.9,20.15-34.9,20.15Zm-2.56-44.2,34.91-20.16,37.47,21.64-34.9,20.15Zm0-42.72,34.91-20.15,34.89,20.15-34.89,20.15Zm0-42.72,34.91-20.16,34.89,20.16-34.89,20.15Zm0-42.72,34.91-20.16,34.89,20.16L1666.65,428Zm0-42.73,38.75-22.38,34.91,20.16-38.75,22.38Zm3.86-44.93,34.89-20.16,34.91,20.16-34.91,20.15Zm0-42.73,34.89-20.15,34.91,20.15-34.91,20.16Zm0-42.71,34.89-20.15,34.91,20.15-34.91,20.15Zm32.8,21.35-34.9,20.15-34.9-20.15L1633.5,236Zm-71.89-1.2-34.91-20.15,34.91-20.15,34.91,20.15Zm-2.1,1.2-34.89,20.15-34.92-20.15L1559.52,236Zm-71.9-1.2-34.9-20.15,34.9-20.15,34.91,20.15Zm-2.08,1.2-38.76,22.38-34.9-20.15L1485.53,236Zm-75.76,1L1409.77,237l38.76-22.36,34.89,20.15Zm-2.09,1.21-34.9,20.15-34.91-20.15,34.91-20.16Zm-71.9-1.21L1335.78,237l34.9-20.15L1405.59,237Zm-2.09,1.21-34.9,20.15-34.91-20.15,34.91-20.16Zm-71.9-1.21L1261.79,237l34.9-20.15,34.9,20.15Zm-2.09,1.21-34.91,20.15-34.9-20.15,34.9-20.16Zm-71.9-1.21L1187.8,237l34.9-20.15L1257.61,237Zm-2.09,1.21-34.91,20.15-34.9-20.15,34.9-20.16Zm-71.9-1.21L1113.8,237l34.91-20.15,34.9,20.15Zm-2.1,1.21-34.9,20.15-34.91-20.15,34.91-20.16Zm-71.9-1.21L1039.81,237l34.9-20.15L1109.62,237Zm-2.09,1.21-34.91,20.15-34.89-20.15,34.89-20.16Zm-71.9-1.21L962,234.78l34.89-20.15L1035.62,237Zm-2.09,1.21-34.9,20.15L925,256.13,959.88,236Zm-75.74-3.43L888,234.78l34.92-20.15,34.89,20.15Zm-2.1,1.2-34.9,20.15L851,256.13,885.89,236Zm-71.9-1.2L814,234.78l34.9-20.15,34.91,20.15Zm-2.09,1.2-34.92,20.15L777,256.13,811.88,236Zm-71.9-1.2L740,234.78l34.9-20.15,34.9,20.15Zm-2.1,1.2-34.9,20.15L703,256.13,737.9,236Zm-71.89-1.2L666,234.78l34.91-20.15,34.9,20.15Zm34.9,22.56-34.9,20.16L666,277.49l34.91-20.15Zm0,42.73-34.9,20.15L666,320.22l34.91-20.16Zm0,42.71-34.9,20.15L666,362.93l34.91-20.16Zm3.85,44.95L704.77,428,666,405.65l34.91-20.15Zm0,42.72-34.89,20.15L669.85,450.6l34.92-20.16Zm0,42.72L702.2,515,667.28,494.8l37.49-21.63Zm-2.57,44.2L702.2,557.67l-34.92-20.15,34.92-20.16Zm0,42.72L702.2,600.39l-34.92-20.15,34.92-20.15Zm0,42.71L702.2,643.12,667.28,623l34.92-20.14Zm0,42.73L702.2,685.83l-34.92-20.15,34.92-20.16Zm0,42.72L702.2,728.55,667.28,708.4l34.92-20.15Zm0,42.72L702.2,771.27l-34.92-20.15L702.2,731Zm0,42.72L702.2,814l-34.92-20.15,34.92-20.15Zm0,42.72L702.2,856.71l-34.92-20.15,34.92-20.15Zm0,42.72L702.2,899.43l-34.92-20.15,34.92-20.15Zm0,42.72L702.2,942.15,667.28,922l34.92-20.15Zm0,42.72L702.2,984.87l-34.92-20.15,34.92-20.15Zm0,42.72L702.2,1027.6l-34.92-20.16,34.92-20.15Zm0,42.73-34.89,20.15-34.92-20.15L702.2,1030Zm2.57,44.19-34.89,20.15-37.49-21.63,34.92-20.15Zm0,42.72-34.89,20.16-34.92-20.16,34.92-20.15Zm0,42.72-38.75,22.38L666,1182l38.77-22.38Zm-3.85,44.94-34.9,20.16L666,1224.74l34.91-20.15Zm2.09,1.21,34.9,20.16-34.9,20.15L703,1246.11Zm2.1-1.21,38.75-22.37,34.91,20.15L774.9,1244.9Zm75.74-1,34.92,20.15-38.78,22.38L777,1246.11Zm2.1-1.21,34.9-20.15,34.91,20.15-34.91,20.15Zm71.89,1.21,34.91,20.15L889.73,1264l-34.9-20.15Zm2.09-1.21,34.91-20.15,34.9,20.15-34.9,20.15Zm71.91,1.21,34.9,20.15L963.73,1264l-34.91-20.15Zm2.09-1.21,34.9-20.15,34.9,20.15-34.9,20.15Zm71.89,1.21,34.91,20.15L1037.71,1264l-34.89-20.15Zm2.1-1.21,34.9-20.15,34.91,20.15-34.91,20.15Zm71.9,1.21,34.9,20.15-34.9,20.15-34.91-20.15Zm2.09-1.21,34.91-20.15,34.9,20.15-34.9,20.15Zm71.9,1.21,34.91,20.15L1185.7,1264l-34.9-20.15Zm2.1-1.21,34.9-20.15,34.91,20.15-34.91,20.15Zm71.89,1.21,34.91,20.15L1259.69,1264l-34.9-20.15Zm2.1-1.21,34.9-20.15,34.9,20.15-34.9,20.15Zm71.9,1.21,34.9,20.15-34.9,20.15-34.91-20.15Zm2.09-1.21,34.9-20.15,34.91,20.15-34.91,20.15Zm71.9,1.21,34.9,20.15-34.9,20.15-34.91-20.15Zm2.09-1.21,34.9-20.15,34.9,20.15-34.9,20.15Zm71.9,1.21,34.9,20.15-34.9,20.15-34.9-20.15Zm2.08-1.21,34.91-20.15,34.91,20.15-34.91,20.15Zm71.9,1.21,34.91,20.15L1555.65,1264l-34.89-20.15Zm2.1-1.21,34.91-20.15,34.9,20.15-34.9,20.15Zm71.89,1.21,38.76,22.38-34.9,20.15-38.76-22.38Zm2.1-1.21,34.91-20.15,38.75,22.37-34.91,20.16Zm75.75,3.43,34.91,20.16-34.91,20.15-34.9-20.15Zm-38.76-24.79,34.91-20.15,38.76,22.37-34.91,20.15Zm0-42.71,34.91-20.16,34.91,20.16-34.91,20.14Zm0-42.73,34.91-20.15,34.91,20.15-34.91,20.15Zm0-42.72,37.48-21.63,34.91,20.15-37.48,21.63Zm2.58-44.19,34.9-20.16,34.91,20.16L1706.21,1049Zm0-42.73,34.9-20.15,34.91,20.15-34.91,20.15Zm0-42.72,34.9-20.15,34.91,20.15-34.91,20.15Zm0-42.72,34.9-20.15,34.91,20.15-34.91,20.15Zm0-42.72,34.9-20.15,34.91,20.15-34.91,20.16Zm0-42.72,34.9-20.15,34.91,20.15-34.91,20.15Zm0-42.72,34.9-20.15,34.91,20.15-34.91,20.15Zm0-42.72,34.9-20.15,34.91,20.15-34.91,20.16Zm0-42.72,34.9-20.15L1741.12,687l-34.91,20.15Zm0-42.71,34.9-20.17,34.91,20.17-34.91,20.14Zm0-42.73,34.9-20.15,34.91,20.15-34.91,20.16Zm0-42.72,34.9-20.15,34.91,20.15L1706.21,579Zm-2.58-44.2,34.91-20.15,37.48,21.64-34.91,20.15Zm0-42.72,34.91-20.15L1738.55,472l-34.91,20.15Zm0-42.72,34.91-20.16,34.91,20.16-34.91,20.15Zm0-42.73,38.76-22.37,34.91,20.15-38.76,22.38Zm3.86-44.93,34.9-20.16,34.91,20.16-34.91,20.15Zm0-42.73,34.9-20.15,34.91,20.15L1707.49,319Zm0-42.72,34.9-20.14,34.91,20.14-34.91,20.15Zm-2.1-43.92-34.89-20.15,34.89-20.16,34.91,20.16Zm-2.09,1.21-34.9,20.15-34.9-20.15,34.9-20.16Zm-71.89-1.21-34.91-20.15,34.91-20.16,34.91,20.16Zm-2.1,1.21-34.89,20.15-34.92-20.15,34.92-20.16Zm-71.9-1.21-34.9-20.15,34.9-20.16,34.91,20.16Zm-2.08,1.21-34.9,20.15-34.91-20.15,34.91-20.16Zm-71.9-1.21-34.9-20.15,34.9-20.16,34.89,20.16Zm-2.09,1.21-38.76,22.38-34.91-20.17,38.76-22.37Zm-75.76,1-34.9-20.15,38.76-22.38,34.89,20.16Zm-2.09,1.2-34.9,20.17-34.91-20.17,34.91-20.14Zm-71.9-1.2-34.9-20.15,34.9-20.15,34.9,20.15Zm-2.09,1.2-34.91,20.17-34.9-20.17,34.9-20.14Zm-71.9-1.2-34.9-20.15,34.9-20.15,34.91,20.15Zm-2.09,1.2L1185.7,235.8l-34.9-20.17,34.9-20.14Zm-71.9-1.2-34.91-20.15,34.91-20.15,34.9,20.15Zm-2.1,1.2-34.9,20.17-34.91-20.17,34.91-20.14Zm-71.9-1.2L1036,192.06l34.9-20.16,38.76,22.38Zm-2.09,1.2-34.91,20.17L999,213.42l34.91-20.16Zm-75.75-3.42L962,192.06l34.89-20.16,34.91,20.16Zm-2.09,1.21-34.9,20.15L925,213.42l34.91-20.16Zm-71.89-1.21L888,192.06l34.92-20.16,34.89,20.16Zm-2.1,1.21-34.9,20.15L851,213.42l34.92-20.16Zm-71.9-1.21L814,192.06l34.9-20.16,34.91,20.16Zm-2.09,1.21-34.92,20.15L777,213.42l34.89-20.16Zm-71.9-1.21L740,192.06l34.9-20.16,34.9,20.16Zm-2.1,1.21-34.9,20.15L703,213.42l34.9-20.16Zm-71.89-1.21L666,192.06l34.91-20.16,34.9,20.16Zm-2.1,1.21-34.9,20.15L629,213.42l34.9-20.16Zm0,42.71-34.9,20.15L629,256.13,663.91,236Zm0,42.72L663.91,319,629,298.85l34.9-20.15Zm0,42.73-34.9,20.15L629,341.58l34.9-20.16Zm0,42.71-34.9,20.15L629,384.29l34.9-20.15Zm3.86,44.95-34.9,20.15L629,427l34.9-20.15Zm0,42.72-37.48,21.63-34.9-20.15,37.48-21.63Zm-2.58,44.21-34.9,20.15-34.9-20.15L665.19,496Zm0,42.71L665.19,579l-34.9-20.15,34.9-20.15Zm0,42.72-34.9,20.15-34.9-20.15,34.9-20.15Zm0,42.73-34.9,20.14-34.9-20.14,34.9-20.17Zm0,42.71-34.9,20.15L630.29,687l34.9-20.15Zm0,42.72-34.9,20.16-34.9-20.16,34.9-20.15Zm0,42.72-34.9,20.15-34.9-20.15,34.9-20.15Zm0,42.72-34.9,20.15-34.9-20.15,34.9-20.15Zm0,42.72-34.9,20.16-34.9-20.16,34.9-20.15Zm0,42.72-34.9,20.15-34.9-20.15,34.9-20.15Zm0,42.72-34.9,20.15-34.9-20.15,34.9-20.15Zm0,42.72-34.9,20.15-34.9-20.15,34.9-20.15Zm0,42.73L665.19,1049l-34.9-20.14,34.9-20.16Zm0,42.71-34.9,20.15-34.9-20.15,34.9-20.15Zm2.58,44.2-34.9,20.15-37.48-21.63,34.9-20.15Zm0,42.73-38.76,22.37L629,1160.67l38.76-22.38Zm-3.86,44.93-34.9,20.15L629,1203.38l34.9-20.14Zm0,42.73-34.9,20.15L629,1246.11l34.9-20.16Zm0,42.72L663.91,1309,629,1288.83l34.9-20.15ZM666,1267.47l34.91-20.16,34.9,20.16-34.9,20.15Zm71.9,1.21,34.9,20.15L737.9,1309,703,1288.83Zm2.1-1.21,34.9-20.16,34.9,20.16-34.9,20.15Zm71.88,1.21,34.92,20.15L811.88,1309,777,1288.83Zm2.11-1.21,38.75-22.38,34.91,20.15-38.76,22.38Zm75.74-1,34.91,20.16L885.89,1309,851,1288.83Zm2.09-1.21,34.91-20.15,34.9,20.15-34.9,20.16Zm71.91,1.21,34.9,20.16-34.9,20.14-34.91-20.14Zm2.09-1.21,34.9-20.15,34.9,20.15-34.9,20.16Zm71.89,1.21,34.91,20.16-34.91,20.14-34.89-20.14Zm2.1-1.21,34.9-20.15,34.91,20.15-34.91,20.16Zm71.9,1.21,34.9,20.16-34.9,20.14-34.91-20.14Zm2.09-1.21,34.91-20.15,34.9,20.15-34.9,20.16Zm71.9,1.21,34.91,20.16-34.91,20.14-34.9-20.14Zm2.1-1.21,34.9-20.15,34.91,20.15-34.91,20.16Zm71.89,1.21,34.91,20.16-34.91,20.14-34.9-20.14Zm2.1-1.21,34.9-20.15,34.9,20.15-34.9,20.16Zm71.9,1.21,34.9,20.16-34.9,20.14-34.91-20.14Zm2.09-1.21,34.9-20.15,34.91,20.15-34.91,20.16Zm71.9,1.21,34.9,20.16-34.9,20.14-34.91-20.14Zm2.09-1.21,34.9-20.15,34.9,20.15-34.9,20.16Zm71.9,1.21,34.9,20.16-34.9,20.14-34.9-20.14Zm2.08-1.21,34.91-20.15,34.91,20.15-34.91,20.16Zm71.9,1.21,38.76,22.38-34.9,20.15-38.75-22.37Zm2.1-1.21,34.91-20.15,38.76,22.38-34.91,20.15Zm75.75,3.44,34.9,20.15L1633.5,1309l-34.9-20.15Zm2.1-1.21,34.89-20.16,34.91,20.16-34.91,20.15Zm71.89,1.21,34.91,20.15L1707.49,1309l-34.9-20.15Zm2.09-1.21,34.91-20.16,34.9,20.16-34.9,20.15Zm0-42.73,34.91-20.15,34.9,20.15-34.9,20.16Zm-3.85-44.94,34.9-20.15,38.76,22.38-34.9,20.15Zm0-42.72,34.9-20.15,34.91,20.15-34.91,20.16Zm0-42.72,37.47-21.63,34.91,20.15-37.48,21.63Zm2.57-44.19,34.9-20.17,34.91,20.17-34.91,20.15Zm0-42.73,34.9-20.15,34.91,20.15-34.91,20.16Zm0-42.72,34.9-20.15,34.91,20.15-34.91,20.15Zm0-42.72,34.9-20.15L1778.11,922l-34.91,20.15Zm0-42.72,34.9-20.15,34.91,20.15-34.91,20.15Zm0-42.72,34.9-20.15,34.91,20.15-34.91,20.15Zm0-42.72,34.9-20.15,34.91,20.15L1743.2,814Zm0-42.71L1743.2,731l34.91,20.16-34.91,20.14Zm0-42.73,34.9-20.15,34.91,20.15-34.91,20.15Zm0-42.72,34.9-20.16,34.91,20.16-34.91,20.15Zm0-42.73,34.9-20.14L1778.11,623l-34.91,20.17Zm0-42.71,34.9-20.15,34.91,20.15-34.91,20.15Zm0-42.72,34.9-20.16,34.91,20.16-34.91,20.15Zm-2.57-44.2,34.9-20.15,37.48,21.63L1743.2,515Zm0-42.72,34.9-20.16,34.91,20.16-34.91,20.15Zm0-42.72,38.76-22.38,34.9,20.15L1740.63,428Zm3.85-44.95,34.91-20.16,34.9,20.16-34.9,20.15Zm0-42.71,34.91-20.16,34.9,20.16-34.9,20.15Zm0-42.73,34.91-20.15,34.9,20.15-34.9,20.16Zm0-42.71,34.91-20.15,34.9,20.15-34.9,20.15Zm37-21.36,34.9-20.16,34.91,20.16-34.91,20.15Zm0-42.73,34.9-20.15,34.91,20.15-34.91,20.16Zm-2.09-1.21-34.91-20.15,34.91-20.15,34.9,20.15Zm-2.09,1.21-34.91,20.16-34.9-20.16,34.9-20.15Zm-71.91-1.21-34.89-20.15,34.89-20.15,34.91,20.15Zm-2.09,1.21-34.9,20.16-34.9-20.16,34.9-20.15Zm-71.89-1.21-34.91-20.15,34.91-20.15,34.91,20.15Zm-2.1,1.21-34.89,20.16-34.92-20.16,34.92-20.15Zm-71.9-1.21-34.9-20.15,34.9-20.15,34.91,20.15Zm-2.08,1.21-34.9,20.16-34.91-20.16,34.91-20.15Zm-71.9-1.21-34.9-20.15,34.9-20.15,34.89,20.15Zm-2.09,1.21-34.91,20.16-34.91-20.16,34.91-20.15Zm-71.9-1.21-34.9-20.15,34.9-20.15,34.89,20.15Zm-2.1,1.21-38.75,22.38-34.91-20.15,38.77-22.38Zm-75.75,1-34.9-20.15,38.75-22.38,34.91,20.15Zm-2.09,1.21-34.91,20.15-34.9-20.15,34.9-20.15Zm-71.9-1.21-34.9-20.15,34.9-20.16,34.91,20.16Zm-2.09,1.21-34.91,20.15-34.9-20.15,34.9-20.15Zm-71.9-1.21L1110,149.33l34.9-20.15,38.76,22.38Zm-2.1,1.21-34.9,20.15L1073,170.69l34.92-20.15Zm-75.75-3.44L1036,149.33l34.9-20.15,34.9,20.15Zm-2.08,1.21-34.91,20.16L999,170.69l34.91-20.15Zm-71.91-1.21L962,149.33l34.89-20.15,34.91,20.15Zm-2.09,1.21-34.9,20.16L925,170.69l34.91-20.15Zm-71.89-1.21L888,149.33l34.92-20.15,34.89,20.15Zm-2.1,1.21-34.9,20.16L851,170.69l34.92-20.15Zm-71.9-1.21L814,149.33l34.9-20.15,34.91,20.15Zm-2.09,1.21-34.92,20.16L777,170.69l34.89-20.15Zm-71.9-1.21L740,149.33l34.9-20.15,34.9,20.15Zm-2.1,1.21-34.9,20.16L703,170.69l34.9-20.15Zm-71.89-1.21L666,149.33l34.91-20.15,34.9,20.15Zm-2.1,1.21-34.9,20.16L629,170.69l34.9-20.15Zm-71.9-1.21L592,149.33l34.9-20.15,34.91,20.15Zm34.91,22.58-34.91,20.15L592,192.06l34.9-20.16Zm0,42.72-34.91,20.15L592,234.78l34.9-20.15Zm0,42.71-34.91,20.16L592,277.49l34.9-20.15Zm0,42.73-34.91,20.15L592,320.22l34.9-20.16Zm0,42.71-34.91,20.15L592,362.93l34.9-20.16Zm0,42.72L626.91,425.8,592,405.65l34.9-20.15Zm3.86,45L628.2,472.23l-38.75-22.38,37.46-21.63Zm-2.57,44.2L628.2,515,593.29,494.8l34.91-20.15Zm0,42.72L628.2,557.67l-34.91-20.15,34.91-20.16Zm0,42.72L628.2,600.39l-34.91-20.15,34.91-20.15Zm0,42.71L628.2,643.12,593.29,623l34.91-20.14Zm0,42.73L628.2,685.83l-34.91-20.15,34.91-20.16Zm0,42.72L628.2,728.55,593.29,708.4l34.91-20.15Zm0,42.72L628.2,771.27l-34.91-20.15L628.2,731Zm0,42.72L628.2,814l-34.91-20.15,34.91-20.15Zm0,42.72L628.2,856.71l-34.91-20.15,34.91-20.15Zm0,42.72L628.2,899.43l-34.91-20.15,34.91-20.15Zm0,42.72L628.2,942.15,593.29,922l34.91-20.15Zm0,42.72L628.2,984.87l-34.91-20.15,34.91-20.15Zm0,42.72L628.2,1027.6l-34.91-20.16,34.91-20.15Zm0,42.73-34.91,20.15-34.91-20.15L628.2,1030Zm0,42.71L628.2,1113l-34.91-20.15,34.91-20.15Zm2.57,44.2-38.77,22.38-37.46-21.64,38.75-22.37Zm-3.86,45-34.91,20.15L592,1182l34.9-20.15Zm0,42.71-34.91,20.16L592,1224.74l34.9-20.15Zm0,42.73-34.91,20.15L592,1267.47l34.9-20.16Zm0,42.72-34.91,20.14L592,1310.19l34.9-20.15Zm2.09,1.2,34.9,20.15-34.9,20.17L629,1331.54Zm2.09-1.2L700.91,1290l34.9,20.15-34.9,20.14Zm71.9,1.2,34.9,20.15-34.9,20.17L703,1331.54Zm2.1-1.2L774.9,1290l34.9,20.15-34.9,20.14Zm71.88,1.2,34.92,20.15-34.92,20.17L777,1331.54Zm2.11-1.2,34.9-20.15,34.91,20.15-34.91,20.14Zm71.9,1.2,34.9,20.15-34.9,20.15L851,1331.54Zm2.08-1.2,38.76-22.38,34.9,20.16-38.74,22.36Zm75.76-1,34.9,20.15-38.75,22.36L925,1331.54Zm2.09-1.21,34.9-20.16,34.9,20.16-34.9,20.15Zm71.89,1.21,34.91,20.15-34.91,20.15-34.89-20.15Zm2.1-1.21,34.9-20.16,34.91,20.16-34.91,20.15Zm71.9,1.21,34.9,20.15-34.9,20.15-34.91-20.15Zm2.09-1.21,34.91-20.16,34.9,20.16-34.9,20.15Zm71.9,1.21,34.91,20.15-34.91,20.15-34.9-20.15Zm2.1-1.21,34.9-20.16,34.91,20.16-34.91,20.15Zm71.89,1.21,34.91,20.15-34.91,20.15-34.9-20.15Zm2.1-1.21,34.9-20.16,34.9,20.16-34.9,20.15Zm71.9,1.21,34.9,20.15-34.9,20.15-34.91-20.15Zm2.09-1.21,34.9-20.16,34.91,20.16-34.91,20.15Zm71.9,1.21,34.9,20.15-34.9,20.15-34.91-20.15Zm2.09-1.21,34.9-20.16,34.9,20.16-34.9,20.15Zm71.9,1.21,38.76,22.36-34.9,20.15-38.76-22.36Zm2.08-1.21,34.91-20.16,38.76,22.38-34.91,20.14Zm75.76,3.42,34.9,20.15-34.9,20.15-34.91-20.15Zm2.09-1.2,34.91-20.15,34.91,20.15-34.91,20.14Zm71.9,1.2,34.9,20.15-34.9,20.15-34.9-20.15Zm2.1-1.2,34.89-20.15,34.91,20.15-34.91,20.14Zm71.89,1.2,34.91,20.15-34.91,20.15-34.9-20.15Zm2.09-1.2,34.91-20.15,34.9,20.15-34.9,20.14Zm71.9,1.2,34.91,20.15-34.91,20.15-34.9-20.15Zm-34.9-22.56,34.9-20.15,34.91,20.15L1781.48,1309Zm0-42.72,34.9-20.16,34.91,20.16-34.91,20.15Zm0-42.73,34.9-20.14,34.91,20.14-34.91,20.15Zm-3.85-44.93,34.9-20.16,38.76,22.38-34.91,20.15Zm0-42.73,37.46-21.63,34.91,20.15-37.47,21.63Zm2.56-44.2,34.9-20.15,34.91,20.15-34.91,20.15Zm0-42.71,34.9-20.16,34.91,20.16L1780.19,1049Zm0-42.73,34.9-20.15,34.91,20.15-34.91,20.15Zm0-42.72,34.9-20.15,34.91,20.15-34.91,20.15Zm0-42.72,34.9-20.15,34.91,20.15-34.91,20.15Zm0-42.72,34.9-20.15,34.91,20.15-34.91,20.16Zm0-42.72,34.9-20.15,34.91,20.15-34.91,20.15Zm0-42.72,34.9-20.15,34.91,20.15-34.91,20.15Zm0-42.72,34.9-20.15,34.91,20.15-34.91,20.16Zm0-42.72,34.9-20.15L1815.1,687l-34.91,20.15Zm0-42.71,34.9-20.17,34.91,20.17-34.91,20.14Zm0-42.73,34.9-20.15,34.91,20.15-34.91,20.16Zm0-42.72,34.9-20.15,34.91,20.15L1780.19,579Zm0-42.71,34.9-20.17,34.91,20.17-34.91,20.15ZM1742.73,472l34.9-20.15,37.47,21.63-34.91,20.15Zm0-42.72,38.75-22.38L1816.39,427l-38.76,22.38Zm3.85-44.95,34.9-20.15,34.91,20.15-34.91,20.15Zm0-42.71,34.9-20.16,34.91,20.16-34.91,20.15Zm0-42.73,34.9-20.15,34.91,20.15L1781.48,319Zm0-42.72,34.9-20.14,34.91,20.14-34.91,20.15Zm37-21.35,34.9-20.15,34.9,20.15-34.9,20.15Zm0-42.72,34.9-20.16,34.9,20.16-34.9,20.15Zm0-42.73,34.9-20.15,34.9,20.15-34.9,20.15Zm0-42.71,34.9-20.15,34.9,20.15-34.9,20.15ZM1816.39,128l-34.91,20.15L1746.58,128l34.9-20.15Zm-71.9-1.21-34.91-20.15,34.91-20.15,34.9,20.15ZM1742.4,128l-34.91,20.15L1672.59,128l34.9-20.15Zm-71.91-1.21-34.89-20.15,34.89-20.15,34.91,20.15ZM1668.4,128l-34.9,20.15L1598.6,128l34.9-20.15Zm-71.89-1.21-34.91-20.15,34.91-20.15,34.91,20.15Zm-2.1,1.21-34.89,20.15L1524.6,128l34.92-20.15Zm-71.9-1.21-34.9-20.15,34.9-20.15,34.91,20.15Zm-2.08,1.21-34.9,20.15L1450.62,128l34.91-20.15Zm-71.9-1.21-34.9-20.15,34.9-20.15,34.89,20.15Zm-2.09,1.21-34.91,20.15L1376.62,128l34.91-20.15Zm-71.9-1.21-34.9-20.15,34.9-20.15,34.89,20.15Zm-2.1,1.21-34.89,20.15L1302.63,128l34.92-20.15Zm-71.9-1.21-34.9-20.15,34.9-20.15,34.91,20.15Zm-2.09,1.21-38.76,22.37-34.9-20.14,38.75-22.38Zm-75.75,1-38.76-22.38,38.76-22.38,38.75,22.38Zm-2.09,1.21-34.91,20.14L1146.94,128l34.91-20.15Zm-75.76-3.44L1110,106.62l34.9-20.15,34.91,20.15Zm-2.09,1.21-34.89,20.15L1073,128l34.92-20.15Zm-71.9-1.21L1036,106.62l34.9-20.15,34.9,20.15Zm-2.08,1.21-34.91,20.15L999,128l34.91-20.15Zm-71.91-1.21L962,106.62l34.89-20.15,34.91,20.15ZM994.78,128l-34.9,20.15L925,128l34.91-20.15Zm-71.89-1.21L888,106.62l34.92-20.15,34.89,20.15Zm-2.1,1.21-34.9,20.15L851,128l34.92-20.15Zm-71.9-1.21L814,106.62l34.9-20.15,34.91,20.15ZM846.8,128l-34.92,20.15L777,128l34.89-20.15Zm-71.9-1.21L740,106.62l34.9-20.15,34.9,20.15ZM772.8,128l-34.9,20.15L703,128l34.9-20.15Zm-71.89-1.21L666,106.62l34.91-20.15,34.9,20.15Zm-2.1,1.21-34.9,20.15L629,128l34.9-20.15Zm-71.9-1.21L592,106.62l34.9-20.15,34.91,20.15ZM624.83,128l-34.91,20.15L555,128l34.9-20.15Zm0,42.71-34.91,20.16L555,170.69l34.9-20.15Zm0,42.73-34.91,20.15L555,213.42l34.9-20.16Zm0,42.71-34.91,20.15L555,256.13,589.92,236Zm0,42.72L589.92,319,555,298.85l34.9-20.15Zm0,42.73-34.91,20.15L555,341.58l34.9-20.16Zm0,42.71-34.91,20.15L555,384.29l34.9-20.15Zm0,42.72-37.48,21.64-34.9-20.15,37.47-21.64Zm1.29,46.43L591.2,493.59l-38.75-22.37,34.9-20.16Zm0,42.73L591.2,536.32l-34.89-20.15L591.2,496Zm0,42.71L591.2,579l-34.89-20.15,34.89-20.15Zm0,42.72L591.2,621.75,556.31,601.6l34.89-20.15Zm0,42.73L591.2,664.47l-34.89-20.14,34.89-20.17Zm0,42.71L591.2,707.19,556.31,687l34.89-20.15Zm0,42.72L591.2,749.92l-34.89-20.16,34.89-20.15Zm0,42.72L591.2,792.63l-34.89-20.15,34.89-20.15Zm0,42.72L591.2,835.35,556.31,815.2l34.89-20.15Zm0,42.72L591.2,878.08l-34.89-20.16,34.89-20.15Zm0,42.72L591.2,920.79l-34.89-20.15,34.89-20.15Zm0,42.72L591.2,963.51l-34.89-20.15,34.89-20.15Zm0,42.72-34.92,20.15-34.89-20.15,34.89-20.15Zm0,42.73L591.2,1049l-34.89-20.14,34.89-20.16Zm0,42.71-34.92,20.15-34.89-20.15,34.89-20.15Zm0,42.72-38.77,22.38-34.9-20.15,38.75-22.38Zm-1.29,46.43-34.91,20.15-37.47-21.64,34.9-20.15Zm0,42.71-34.91,20.15L555,1203.38l34.9-20.14Zm0,42.73-34.91,20.15L555,1246.11l34.9-20.16Zm0,42.72L589.92,1309,555,1288.83l34.9-20.15Zm0,42.71-34.91,20.17L555,1331.54l34.9-20.15Zm0,42.73-34.91,20.15L555,1374.27l34.9-20.16ZM592,1352.9l34.9-20.15,34.91,20.15-34.91,20.16Zm71.9,1.21,34.9,20.16-34.9,20.15L629,1374.27Zm2.09-1.21,34.91-20.15,34.9,20.15-34.9,20.16Zm71.9,1.21,34.9,20.16-34.9,20.15L703,1374.27Zm2.1-1.21,34.9-20.15,34.9,20.15-34.9,20.16Zm71.88,1.21,34.92,20.16-34.92,20.15L777,1374.27Zm2.11-1.21,34.9-20.15,34.91,20.15-34.91,20.16Zm71.9,1.21,34.9,20.16-34.9,20.15L851,1374.27Zm2.08-1.21,34.92-20.15,34.89,20.15-34.89,20.16Zm71.91,1.21,34.9,20.16-34.9,20.15L925,1374.27Zm2.1-1.21,38.74-22.36,34.9,20.15-38.75,22.37Zm75.73-1,34.91,20.15-38.76,22.38L999,1374.27Zm2.1-1.2,34.9-20.15,34.91,20.15-34.91,20.14Zm71.9,1.2,34.9,20.15-34.9,20.16L1076.8,1372Zm2.09-1.2,34.91-20.15,34.9,20.15-34.9,20.14Zm71.9,1.2,34.91,20.15-34.91,20.16L1150.8,1372Zm2.1-1.2,34.9-20.15,34.91,20.15-34.91,20.14Zm71.89,1.2L1294.6,1372l-34.91,20.16-34.9-20.16Zm2.1-1.2,34.9-20.15,34.9,20.15-34.9,20.14Zm71.9,1.2,34.9,20.15-34.9,20.16L1298.78,1372Zm2.09-1.2,34.9-20.15,34.91,20.15-34.91,20.14Zm71.9,1.2,38.76,22.38-34.91,20.15L1372.77,1372Zm2.09-1.2,34.9-20.15,38.75,22.36-34.89,20.16Zm75.76,3.42,34.9,20.16-34.9,20.15-34.91-20.15Zm2.08-1.21,34.9-20.15,34.91,20.15-34.91,20.16Zm71.9,1.21,34.9,20.16-34.9,20.15-34.91-20.15Zm2.09-1.21,34.91-20.15,34.91,20.15-34.91,20.16Zm71.9,1.21,34.9,20.16-34.9,20.15-34.9-20.15Zm2.1-1.21,34.89-20.15,34.91,20.15-34.91,20.16Zm71.89,1.21,34.91,20.16-34.91,20.15-34.9-20.15Zm2.09-1.21,34.91-20.15,34.9,20.15-34.9,20.16Zm71.9,1.21,34.91,20.16-34.91,20.15-34.9-20.15Zm2.1-1.21,34.9-20.15,34.9,20.15-34.9,20.16Zm0-42.71,34.9-20.15,34.9,20.15-34.9,20.14Zm0-42.72,34.9-20.16,34.9,20.16-34.9,20.15Zm0-42.73,34.9-20.15,34.9,20.15-34.9,20.16Zm0-42.71,34.9-20.15,34.9,20.15-34.9,20.15Zm-3.86-45,37.48-21.63,38.75,22.37-37.47,21.64Zm2.57-44.2,34.91-20.15,34.9,20.15L1817.2,1113Zm0-42.71L1817.2,1030l34.9,20.17-34.9,20.15Zm0-42.73,34.91-20.15,34.9,20.15-34.9,20.16Zm0-42.72,34.91-20.15,34.9,20.15-34.9,20.15Zm0-42.72,34.91-20.15L1852.1,922l-34.9,20.15Zm0-42.72,34.91-20.15,34.9,20.15-34.9,20.15Zm0-42.72,34.91-20.15,34.9,20.15-34.9,20.15Zm0-42.72,34.91-20.15,34.9,20.15L1817.2,814Zm0-42.71L1817.2,731l34.9,20.16-34.9,20.14Zm0-42.73,34.91-20.15,34.9,20.15-34.9,20.15Zm0-42.72,34.91-20.16,34.9,20.16-34.9,20.15Zm0-42.73,34.91-20.14L1852.1,623l-34.9,20.17Zm0-42.71,34.91-20.15,34.9,20.15-34.9,20.15Zm0-42.72,34.91-20.16,34.9,20.16-34.9,20.15Zm0-42.72,34.91-20.15,34.9,20.15L1817.2,515Zm-2.57-44.2,38.76-22.38L1856,449.85l-38.75,22.38Zm3.86-45,34.9-20.15,34.9,20.15-34.9,20.15Zm0-42.72,34.9-20.16,34.9,20.16-34.9,20.15Zm0-42.71,34.9-20.16,34.9,20.16-34.9,20.15Zm0-42.73,34.9-20.15,34.9,20.15-34.9,20.16Zm37-21.36,34.9-20.14,34.91,20.14-34.91,20.15Zm0-42.71,34.9-20.16,34.91,20.16-34.91,20.15Zm0-42.73,34.9-20.15,34.91,20.15-34.91,20.16Zm0-42.71,34.9-20.15L1890.38,128l-34.91,20.15Zm0-42.72,34.9-20.16,34.91,20.16-34.91,20.15Zm-2.09-1.21-34.9-20.16,34.9-20.15,34.9,20.15Zm-2.09,1.21-34.91,20.15-34.9-20.15,34.9-20.16Zm-71.9-1.21-34.91-20.16,34.91-20.15,34.9,20.15Zm-2.09,1.21-34.91,20.15-34.9-20.15,34.9-20.16Zm-71.91-1.21L1635.6,63.89l34.89-20.15,34.91,20.15Zm-2.09,1.21-34.9,20.15-34.9-20.15,34.9-20.16Zm-71.89-1.21L1561.6,63.89l34.91-20.15,34.91,20.15Zm-2.1,1.21-34.89,20.15L1524.6,85.26l34.92-20.16Zm-71.9-1.21-34.9-20.16,34.9-20.15,34.91,20.15Zm-2.08,1.21-34.9,20.15-34.91-20.15,34.91-20.16Zm-71.9-1.21-34.9-20.16,34.9-20.15,34.89,20.15Zm-2.09,1.21-34.91,20.15-34.91-20.15,34.91-20.16Zm-71.9-1.21-34.9-20.16,34.9-20.15,34.89,20.15Zm-2.1,1.21-34.89,20.15-34.92-20.15,34.92-20.16Zm-71.9-1.21-38.75-22.38,34.9-20.15,38.76,22.37Zm-2.09,1.21-34.91,20.15L1224.79,83l34.9-20.15Zm-75.75-3.45-34.9-20.14,34.9-20.15,34.91,20.15ZM1220.61,83l-38.76,22.38-34.91-20.15,38.76-22.38Zm-75.76,1L1110,63.89l38.76-22.37,34.9,20.15Zm-2.09,1.21-34.89,20.15L1073,85.26l34.92-20.16Zm-71.9-1.21L1036,63.89l34.9-20.15,34.9,20.15Zm-2.08,1.21-34.91,20.15L999,85.26l34.91-20.16Zm-71.91-1.21L962,63.89l34.89-20.15,34.91,20.15Zm-2.09,1.21-34.9,20.15L925,85.26,959.88,65.1Zm-71.89-1.21L888,63.89l34.92-20.15,34.89,20.15Zm-2.1,1.21-34.9,20.15L851,85.26,885.89,65.1Zm-71.9-1.21L814,63.89l34.9-20.15L883.8,63.89Zm-2.09,1.21-34.92,20.15L777,85.26,811.88,65.1Zm-71.9-1.21L740,63.89l34.9-20.15,34.9,20.15Zm-2.1,1.21-34.9,20.15L703,85.26,737.9,65.1Zm-71.89-1.21L666,63.89l34.91-20.15,34.9,20.15Zm-2.1,1.21-34.9,20.15L629,85.26l34.9-20.16Zm-71.9-1.21L592,63.89l34.9-20.15,34.91,20.15Zm-2.08,1.21-34.91,20.15L555,85.26l34.9-20.16Zm-71.91-1.21L518,63.89l34.9-20.15,34.91,20.15Zm34.91,22.57-34.91,20.15L518,106.62l34.9-20.15Zm0,42.71-34.91,20.15L518,149.33l34.9-20.15Zm0,42.73-34.91,20.15L518,192.06l34.9-20.16Zm0,42.72-34.91,20.15L518,234.78l34.9-20.15Zm0,42.71-34.91,20.16L518,277.49l34.9-20.15Zm0,42.73-34.91,20.15L518,320.22l34.9-20.16Zm0,42.71-34.91,20.15L518,362.93l34.9-20.16Zm0,42.72-37.47,21.64-34.9-20.15,37.46-21.64Zm-2.57,44.2L550.36,470l-34.9-20.16,34.9-20.15Zm3.85,44.95L554.21,515l-38.75-22.38,34.9-20.16Zm0,42.72-34.9,20.15-34.9-20.15,34.9-20.16Zm0,42.72-34.9,20.15-34.9-20.15,34.9-20.15Zm0,42.71-34.9,20.17L519.31,623l34.9-20.14Zm0,42.73-34.9,20.15-34.9-20.15,34.9-20.16Zm0,42.72-34.9,20.15-34.9-20.15,34.9-20.15Zm0,42.72-34.9,20.15-34.9-20.15L554.21,731Zm0,42.72L554.21,814l-34.9-20.15,34.9-20.15Zm0,42.72-34.9,20.15-34.9-20.15,34.9-20.15Zm0,42.72-34.9,20.15-34.9-20.15,34.9-20.15Zm0,42.72-34.9,20.15L519.31,922l34.9-20.15Zm0,42.72-34.9,20.15-34.9-20.15,34.9-20.15Zm0,42.72-34.9,20.16-34.9-20.16,34.9-20.15Zm0,42.73-34.9,20.15-34.9-20.15,34.9-20.17Zm0,42.71-38.75,22.38-34.9-20.15,38.75-22.38Zm-3.85,44.94L550.36,1158l-34.9-20.15,34.9-20.14Zm2.57,44.21-34.91,20.15-37.46-21.64,34.9-20.15Zm0,42.71-34.91,20.16L518,1224.74l34.9-20.15Zm0,42.73-34.91,20.15L518,1267.47l34.9-20.16Zm0,42.72-34.91,20.14L518,1310.19l34.9-20.15Zm0,42.71-34.91,20.16L518,1352.9l34.9-20.15Zm0,42.73-34.91,20.15L518,1395.63l34.9-20.16Zm2.09,1.21L624.83,1417l-34.91,20.14L555,1417Zm2.09-1.21,34.9-20.16,34.91,20.16-34.91,20.15Zm71.9,1.21,34.9,20.15-34.9,20.14L629,1417Zm2.09-1.21,34.91-20.16,34.9,20.16-34.9,20.15Zm71.9,1.21L772.8,1417l-34.9,20.14L703,1417Zm2.09-1.21,34.91-20.16,34.9,20.16-34.9,20.15Zm71.89,1.21L846.8,1417l-34.92,20.14L777,1417Zm2.11-1.21,34.9-20.16,34.91,20.16-34.91,20.15Zm71.9,1.21,34.9,20.15-34.9,20.14L851,1417Zm2.08-1.21,34.92-20.16,34.89,20.16-34.89,20.15Zm71.91,1.21,34.9,20.15-34.9,20.14L925,1417Zm2.1-1.21,34.89-20.16,34.91,20.16-34.91,20.15Zm71.88,1.21,34.92,20.15-34.92,20.14L999,1417Zm2.1-1.21,38.75-22.38,34.91,20.15-38.76,22.38Zm75.75-1,34.9,20.16-38.76,22.36L1073,1417Zm2.09-1.21,34.91-20.15,34.9,20.15-34.9,20.16Zm71.9,1.21,34.91,20.16-34.91,20.15-34.9-20.15Zm2.1-1.21,34.9-20.15,34.91,20.15-34.91,20.16Zm71.89,1.21,34.91,20.16-34.91,20.15-34.9-20.15Zm2.1-1.21,34.9-20.15,34.9,20.15-34.9,20.16Zm71.9,1.21,38.75,22.38-34.89,20.14-38.77-22.36Zm2.09-1.21,34.9-20.15,38.75,22.38-34.89,20.15Zm75.75,3.44,34.91,20.15-34.91,20.14L1376.62,1417Zm2.1-1.21,34.9-20.16,34.89,20.16-34.89,20.15Zm71.9,1.21,34.9,20.15-34.9,20.14L1450.62,1417Zm2.08-1.21,34.9-20.16,34.91,20.16-34.91,20.15Zm71.9,1.21,34.9,20.15-34.9,20.14L1524.6,1417Zm2.09-1.21,34.91-20.16,34.91,20.16-34.91,20.15Zm71.9,1.21,34.9,20.15-34.9,20.14L1598.6,1417Zm2.1-1.21,34.89-20.16,34.91,20.16-34.91,20.15Zm71.89,1.21L1742.4,1417l-34.91,20.14-34.9-20.14Zm2.09-1.21,34.91-20.16,34.9,20.16-34.9,20.15Zm71.9,1.21,34.91,20.15-34.91,20.14-34.9-20.14Zm2.1-1.21,34.9-20.16,34.9,20.16-34.9,20.15Zm71.89,1.21,34.91,20.15-34.91,20.14-34.9-20.14Zm-34.9-22.57,34.9-20.16,34.91,20.16-34.91,20.15Zm0-42.73,34.9-20.15,34.91,20.15-34.91,20.15Zm0-42.71,34.9-20.15,34.91,20.15L1855.47,1309Zm0-42.72,34.9-20.16,34.91,20.16-34.91,20.15Zm0-42.73,34.9-20.14,34.91,20.14-34.91,20.15Zm0-42.71L1858,1139l34.91,20.15-37.48,21.64Zm-1.29-46.43,34.91-20.15,38.76,22.38L1858,1136.62Zm0-42.72,34.91-20.15,34.9,20.15-34.9,20.15Zm0-42.71,34.91-20.16,34.9,20.16-34.9,20.14Zm0-42.73,34.91-20.15,34.9,20.15-34.9,20.15Zm0-42.72,34.91-20.15,34.9,20.15-34.9,20.15Zm0-42.72,34.91-20.15,34.9,20.15-34.9,20.15Zm0-42.72,34.91-20.15,34.9,20.15-34.9,20.16Zm0-42.72,34.91-20.15,34.9,20.15-34.9,20.15Zm0-42.72,34.91-20.15,34.9,20.15-34.9,20.15Zm0-42.72,34.91-20.15,34.9,20.15-34.9,20.16Zm0-42.72,34.91-20.15,34.9,20.15-34.9,20.15Zm0-42.71,34.91-20.17,34.9,20.17-34.9,20.14Zm0-42.73,34.91-20.15,34.9,20.15-34.9,20.16Zm0-42.72,34.91-20.15,34.9,20.15L1854.19,579Zm0-42.71L1854.19,496l34.9,20.17-34.9,20.15Zm0-42.73L1858,451.06,1893,471.22l-38.76,22.37Zm1.29-46.43,34.9-20.15L1893,428.5,1858,448.65Zm0-42.72,34.9-20.15,34.91,20.15-34.91,20.15Zm0-42.71,34.9-20.16,34.91,20.16-34.91,20.15Zm0-42.73,34.9-20.15,34.91,20.15L1855.47,319Zm106.8-64.07-34.9,20.15-34.9-20.15,34.9-20.15Zm0-42.72-34.91,20.15-34.9-20.15,34.9-20.16Zm0-42.73-34.91,20.15-34.9-20.15,34.9-20.15Zm0-42.71-34.91,20.15-34.9-20.15,34.9-20.15Zm0-42.73-34.91,20.16-34.9-20.16,34.9-20.15ZM1892.47,1l34.91,20.15-34.91,20.15-34.9-20.15Zm-2.09,41.51-34.91,20.16-34.9-20.16,34.9-20.15ZM1818.48,1l34.9,20.15-34.9,20.15-34.9-20.15Zm-2.09,41.51-34.91,20.16-34.9-20.16,34.9-20.15ZM1744.49,1l34.9,20.15-34.9,20.15-34.91-20.15Zm-2.09,41.51-34.91,20.16-34.9-20.16,34.9-20.15ZM1670.49,1l34.91,20.15-34.91,20.15L1635.6,21.17Zm-2.09,41.51-34.9,20.16-34.9-20.16,34.9-20.15ZM1596.51,1l34.91,20.15-34.91,20.15L1561.6,21.17Zm-2.1,41.51-34.89,20.16L1524.6,42.53l34.92-20.15ZM1522.51,1l34.91,20.15-34.91,20.15-34.9-20.15Zm-2.08,41.51-34.9,20.16-34.91-20.16,34.91-20.15ZM1448.53,1l34.89,20.15-34.89,20.15-34.9-20.15Zm-2.09,41.51-34.91,20.16-34.91-20.16,34.91-20.15ZM1370.68-1.21l38.75,22.38-34.89,20.15L1335.78,19Zm1.76,43.74-34.89,20.16-38.77-22.38,34.91-20.15ZM1296.69-1.21,1331.59,19l-34.9,20.15L1261.79,19Zm-2.09,41.52-34.91,20.15-34.9-20.15,34.9-20.15ZM1222.7-1.21,1257.61,19,1222.7,39.1,1187.8,19Zm-2.09,41.52L1185.7,60.46l-34.9-20.15,34.9-20.15Zm-71.9-41.52L1183.61,19l-34.9,20.15L1113.8,19Zm-2.1,41.52-38.74,22.38L1073,42.53l38.76-22.37Zm-71.9-41.52L1109.62,19l-38.76,22.37L1036,21.17Zm-5.93,43.74-34.91,20.16L999,42.53l34.91-20.15ZM996.87,1l34.91,20.15L996.87,41.32,962,21.17Zm-2.09,41.51-34.9,20.16L925,42.53l34.91-20.15ZM922.89,1l34.89,20.15L922.89,41.32,888,21.17Zm-2.1,41.51-34.9,20.16L851,42.53l34.92-20.15ZM848.89,1,883.8,21.17,848.89,41.32,814,21.17ZM846.8,42.53,811.88,62.69,777,42.53l34.89-20.15ZM774.9,1l34.9,20.15L774.9,41.32,740,21.17Zm-2.1,41.51L737.9,62.69,703,42.53l34.9-20.15ZM700.91,1l34.9,20.15-34.9,20.15L666,21.17Zm-2.1,41.51-34.9,20.16L629,42.53l34.9-20.15ZM626.91,1l34.91,20.15L626.91,41.32,592,21.17Zm-2.08,41.51L589.92,62.69,555,42.53l34.9-20.15ZM552.92,1l34.91,20.15L552.92,41.32,518,21.17ZM481,42.53l34.9-20.15,34.9,20.15-34.9,20.16Zm0,42.73,34.9-20.16,34.9,20.16-34.9,20.15ZM481,128l34.9-20.15L550.83,128l-34.9,20.15Zm0,42.71,34.9-20.15,34.9,20.15-34.9,20.16Zm0,42.73,34.9-20.16,34.9,20.16-34.9,20.15Zm0,42.71L515.93,236l34.9,20.14-34.9,20.15Zm0,42.72,34.9-20.15,34.9,20.15L515.93,319Zm0,42.73,34.9-20.16,34.9,20.16-34.9,20.15Zm-2.57,44.2,37.47-21.64,34.9,20.15-37.47,21.64Zm0,42.72,34.9-20.15,34.9,20.15-34.9,20.15Zm0,42.72,34.9-20.16,34.9,20.16-34.9,20.15Zm0,42.72,34.9-20.15,38.75,22.38-34.89,20.15Zm3.85,44.94,34.91-20.15,34.89,20.15L517.22,579Zm0,42.72,34.91-20.15,34.89,20.15-34.89,20.15Zm0,42.73,34.91-20.17,34.89,20.17-34.89,20.14Zm0,42.71,34.91-20.15L552.11,687l-34.89,20.15Zm0,42.72,34.91-20.15,34.89,20.15-34.89,20.16Zm0,42.72,34.91-20.15,34.89,20.15-34.89,20.15Zm0,42.72,34.91-20.15,34.89,20.15-34.89,20.15Zm0,42.72,34.91-20.15,34.89,20.15-34.89,20.16Zm0,42.72,34.91-20.15,34.89,20.15-34.89,20.15Zm0,42.72,34.91-20.15,34.89,20.15-34.89,20.15Zm0,42.72,34.91-20.15,34.89,20.15-34.89,20.15Zm0,42.73,34.91-20.16,34.89,20.16L517.22,1049Zm-3.85,44.93,38.76-22.37,34.89,20.15-38.75,22.38Zm0,42.73,34.9-20.16,34.9,20.16-34.9,20.15Zm0,42.71,34.9-20.15,34.9,20.15-34.9,20.15Zm0,42.72,34.9-20.15,37.47,21.63-34.9,20.15Zm2.57,44.21,34.9-20.16,34.9,20.16-34.9,20.15Zm0,42.72,34.9-20.15,34.9,20.15L515.93,1309Zm0,42.71,34.9-20.15,34.9,20.15-34.9,20.17Zm0,42.73,34.9-20.16,34.9,20.16-34.9,20.15Zm0,42.72,34.9-20.15,34.9,20.15-34.9,20.14Zm34.9,62.87L481,1459.7l34.9-20.15,34.9,20.15Zm2.09-41.52,34.9-20.15,34.91,20.15-34.91,20.15Zm71.9,41.52L555,1459.7l34.9-20.15,34.91,20.15Zm2.09-41.52,34.9-20.15,34.91,20.15-34.91,20.15Zm71.9,41.52L629,1459.7l34.9-20.15,34.9,20.15Zm2.09-41.52,34.91-20.15,34.9,20.15-34.9,20.15Zm71.9,41.52L703,1459.7l34.9-20.15,34.9,20.15Zm2.09-41.52,34.91-20.15,34.9,20.15-34.9,20.15Zm71.89,41.52L777,1459.7l34.89-20.15,34.92,20.15Zm2.11-41.52,34.9-20.15,34.91,20.15-34.91,20.15Zm71.9,41.52L851,1459.7l34.92-20.15,34.9,20.15Zm2.08-41.52,34.92-20.15,34.89,20.15-34.89,20.15Zm71.91,41.52L925,1459.7l34.91-20.15,34.9,20.15Zm2.1-41.52,34.89-20.15,34.91,20.15-34.91,20.15Zm71.88,41.52L999,1459.7l34.9-20.15,34.92,20.15Zm2.1-41.52,34.9-20.15,34.9,20.15-34.9,20.15Zm71.89,41.52L1073,1459.7l34.9-20.15,34.91,20.15Zm2.1-41.52,38.76-22.36,34.9,20.15-38.76,22.36Zm71.9,41.52-34.91-20.16,38.76-22.36,34.91,20.15Zm6-43.73,34.9-20.15,34.91,20.15-34.91,20.15Zm75.74,43.73-38.75-22.37,34.9-20.15,38.76,22.36Zm-1.75-43.73,34.9-20.15,38.76,22.36-34.91,20.15Zm75.76,43.73-34.92-20.16,34.92-20.15,34.89,20.15Zm2.07-41.52,34.92-20.15,34.89,20.15-34.89,20.15Zm71.91,41.52-34.91-20.16,34.91-20.15,34.91,20.15Zm2.1-41.52,34.9-20.15,34.89,20.15-34.89,20.15Zm71.9,41.52-34.91-20.16,34.91-20.15,34.9,20.15Zm2.08-41.52,34.9-20.15,34.91,20.15-34.91,20.15Zm71.9,41.52-34.91-20.16,34.91-20.15,34.9,20.15Zm2.09-41.52,34.91-20.15,34.91,20.15-34.91,20.15Zm71.9,41.52-34.9-20.16,34.9-20.15,34.9,20.15Zm2.1-41.52,34.89-20.15,34.91,20.15-34.91,20.15Zm71.89,41.52-34.9-20.16,34.9-20.15,34.91,20.15Zm2.09-41.52,34.91-20.15,34.9,20.15-34.9,20.15Zm71.9,41.52-34.9-20.16,34.9-20.15,34.91,20.15Zm2.1-41.52,34.9-20.15,34.9,20.15-34.9,20.15Zm71.89,41.52-34.9-20.16,34.9-20.15,34.91,20.15Zm71.9-41.52-34.9,20.15-34.9-20.15,34.9-20.15Zm0-42.71-34.9,20.15-34.9-20.15,34.9-20.16Zm0-42.73-34.9,20.16-34.9-20.16,34.9-20.15Zm0-42.71-34.9,20.14-34.9-20.14,34.9-20.15Zm0-42.72-34.9,20.15-34.9-20.15,34.9-20.16Zm0-42.73-34.9,20.16-34.9-20.16,34.9-20.15Zm2.57-44.2-37.47,21.64-34.9-20.15,37.47-21.64Zm0-42.72L1895,1158l-34.9-20.15,34.9-20.14Zm0-42.71-34.9,20.15-38.76-22.38,34.9-20.15Zm-3.84-44.94-34.92,20.15-34.9-20.15,34.9-20.17Zm0-42.73-34.92,20.16-34.9-20.16,34.9-20.15Zm0-42.72-34.92,20.15-34.9-20.15,34.9-20.15Zm0-42.72-34.92,20.15L1856.28,922l34.9-20.15Zm0-42.72-34.92,20.15-34.9-20.15,34.9-20.15Zm0-42.72-34.92,20.15-34.9-20.15,34.9-20.15Zm0-42.72L1891.18,814l-34.9-20.15,34.9-20.15Zm0-42.71-34.92,20.14-34.9-20.14,34.9-20.16Zm0-42.73-34.92,20.15-34.9-20.15,34.9-20.15Zm0-42.72-34.92,20.15-34.9-20.15,34.9-20.16Zm0-42.73-34.92,20.17L1856.28,623l34.9-20.14Zm0-42.71-34.92,20.15-34.9-20.15,34.9-20.15Zm0-42.72-34.92,20.15-34.9-20.15,34.9-20.16Zm3.84-44.94L1891.18,515l-34.9-20.16L1895,472.42Zm0-42.73L1895,470l-34.9-20.16L1895,429.7Zm0-42.71L1895,427.29l-37.47-21.64,34.9-20.15Zm-2.57-44.21-34.9,20.15-34.9-20.15,34.9-20.16Zm-34.9-22.56-34.9-20.15,34.9-20.16,34.9,20.16Z"/></g><polygon class="cls-7" points="-1534.22 374.23 -151.33 1172.63 1291.37 339.69 1291.37 321.49 -91.52 -443.21 -1534.22 356.03 -1534.22 374.23"/><polygon class="cls-8" points="-1534.22 356.03 -151.33 1154.44 1291.37 321.49 -91.52 -476.92 -1534.22 356.03"/><polygon class="cls-9" points="-151.33 1172.63 1291.37 339.69 1291.37 321.49 -151.33 1154.44 -151.33 1172.63"/><polygon class="cls-7" points="-1570.32 353.69 -187.43 1152.1 1255.27 319.15 1255.27 300.95 -127.62 -463.75 -1570.32 335.49 -1570.32 353.69"/><polygon class="cls-8" points="-1570.32 335.49 -187.43 1133.9 1255.27 300.95 -127.62 -497.45 -1570.32 335.49"/><polygon class="cls-9" points="-187.43 1152.1 1255.27 319.15 1255.27 300.95 -187.43 1133.9 -187.43 1152.1"/><polygon class="cls-7" points="-1599.3 330.29 -216.41 1128.7 1226.29 295.75 1226.29 277.55 -156.6 -487.15 -1599.3 312.09 -1599.3 330.29"/><polygon class="cls-8" points="-1599.3 312.09 -216.41 1110.5 1226.29 277.55 -156.6 -520.86 -1599.3 312.09"/><polygon class="cls-9" points="-216.41 1128.7 1226.29 295.75 1226.29 277.55 -216.41 1110.5 -216.41 1128.7"/><g class="cls-10"><g class="cls-11"><polygon points="-500.34 263.72 134.57 632.69 147.87 630.63 151.69 632.85 169.09 630.16 198.24 647.1 208.06 652.81 192.74 685.53 141.91 714.88 85.36 723.65 75.54 717.94 46.38 701 51.09 690.93 47.27 688.71 50.87 681.02 -584.04 312.05 -545.46 306.06 -510.8 286.05 -500.34 263.72"/></g><g class="cls-11"><polygon points="-229.55 187.09 346.54 521.87 358.61 520 362.08 522.02 377.87 519.57 404.32 534.94 413.23 540.12 399.32 569.82 353.2 596.45 301.89 604.4 292.98 599.23 266.53 583.85 270.8 574.72 267.33 572.7 270.6 565.72 -305.49 230.93 -270.48 225.5 -239.03 207.34 -229.55 187.09"/></g><g class="cls-11"><polygon points="-12.02 68.89 564.08 403.68 576.14 401.81 579.61 403.83 595.4 401.38 621.85 416.75 630.76 421.93 616.86 451.63 570.74 478.26 519.42 486.21 510.51 481.04 484.06 465.66 488.33 456.53 484.86 454.51 488.13 447.53 -87.96 112.74 -52.95 107.31 -21.5 89.15 -12.02 68.89"/></g><g class="cls-11"><polygon points="207.52 -47.92 783.61 286.87 795.68 285 799.15 287.01 814.93 284.57 841.38 299.94 850.29 305.12 836.39 334.82 790.27 361.44 738.95 369.4 730.04 364.22 703.59 348.85 707.86 339.72 704.39 337.7 707.67 330.72 131.57 -4.07 166.58 -9.5 198.03 -27.66 207.52 -47.92"/></g><g class="cls-11"><polygon points="424.11 -164.33 1000.2 170.46 1012.27 168.59 1015.74 170.6 1031.52 168.16 1057.98 183.53 1066.89 188.71 1052.98 218.41 1006.86 245.03 955.55 252.99 946.64 247.81 920.19 232.44 924.46 223.31 920.99 221.29 924.26 214.31 348.17 -120.48 383.18 -125.91 414.63 -144.07 424.11 -164.33"/></g></g><polygon class="cls-4" points="977.2 168.49 934.33 193.24 934.33 228.24 977.2 252.99 1037.83 252.99 1080.7 228.24 1080.7 193.24 1037.83 168.49 977.2 168.49"/><polygon class="cls-7" points="977.2 264.79 934.33 240.03 934.33 228.24 977.2 252.99 977.2 264.79"/><rect class="cls-9" x="977.2" y="252.99" width="60.63" height="11.79"/><polygon class="cls-4" points="1080.7 240.03 1037.83 264.79 1037.83 252.99 1080.7 228.24 1080.7 240.03"/><polygon class="cls-4" points="982.66 160.74 947.51 181.03 947.51 209.73 982.66 230.03 1032.37 230.03 1067.52 209.73 1067.52 181.03 1032.37 160.74 982.66 160.74"/><polygon class="cls-7" points="982.66 239.7 947.51 219.4 947.51 209.73 982.66 230.03 982.66 239.7"/><rect class="cls-9" x="982.66" y="230.03" width="49.71" height="9.67"/><polygon class="cls-4" points="1067.52 219.4 1032.37 239.7 1032.37 230.03 1067.52 209.73 1067.52 219.4"/><polygon class="cls-12" points="986.84 160.3 957.6 177.18 957.6 201.06 986.84 217.94 1028.19 217.94 1057.43 201.06 1057.43 177.18 1028.19 160.3 986.84 160.3"/><polygon class="cls-7" points="986.84 217.94 957.6 201.06 957.6 -356.04 986.84 -339.15 986.84 217.94"/><rect class="cls-9" x="986.84" y="-339.15" width="41.35" height="557.09"/><polygon class="cls-4" points="1057.43 201.06 1028.19 217.94 1028.19 -339.15 1057.43 -356.04 1057.43 201.06"/><polygon class="cls-4" points="758.22 285.22 715.35 309.97 715.35 344.98 758.22 369.73 818.84 369.73 861.71 344.98 861.71 309.97 818.84 285.22 758.22 285.22"/><polygon class="cls-7" points="758.22 381.52 715.35 356.77 715.35 344.98 758.22 369.73 758.22 381.52"/><rect class="cls-9" x="758.22" y="369.73" width="60.63" height="11.79"/><polygon class="cls-4" points="861.71 356.77 818.84 381.52 818.84 369.73 861.71 344.98 861.71 356.77"/><polygon class="cls-4" points="763.68 277.48 728.53 297.77 728.53 326.47 763.68 346.76 813.38 346.76 848.53 326.47 848.53 297.77 813.38 277.48 763.68 277.48"/><polygon class="cls-7" points="763.68 356.43 728.53 336.14 728.53 326.47 763.68 346.76 763.68 356.43"/><rect class="cls-9" x="763.68" y="346.76" width="49.71" height="9.67"/><polygon class="cls-4" points="848.53 336.14 813.38 356.43 813.38 346.76 848.53 326.47 848.53 336.14"/><polygon class="cls-12" points="767.86 277.04 738.62 293.92 738.62 317.79 767.86 334.67 809.21 334.67 838.44 317.79 838.44 293.92 809.21 277.04 767.86 277.04"/><polygon class="cls-7" points="767.86 334.67 738.62 317.79 738.62 -297.06 767.86 -280.18 767.86 334.67"/><rect class="cls-9" x="767.85" y="-280.18" width="41.35" height="614.85"/><polygon class="cls-4" points="838.44 317.79 809.21 334.67 809.21 -280.18 838.44 -297.06 838.44 317.79"/><polygon class="cls-4" points="539.23 401.95 496.36 426.7 496.36 461.71 539.23 486.46 599.86 486.46 642.73 461.71 642.73 426.7 599.86 401.95 539.23 401.95"/><polygon class="cls-7" points="539.23 498.25 496.36 473.5 496.36 461.71 539.23 486.46 539.23 498.25"/><rect class="cls-9" x="539.23" y="486.46" width="60.63" height="11.79"/><polygon class="cls-4" points="642.73 473.5 599.86 498.25 599.86 486.46 642.73 461.71 642.73 473.5"/><polygon class="cls-4" points="544.69 394.21 509.54 414.5 509.54 443.2 544.69 463.49 594.4 463.49 629.55 443.2 629.55 414.5 594.4 394.21 544.69 394.21"/><polygon class="cls-7" points="544.69 473.16 509.54 452.87 509.54 443.2 544.69 463.49 544.69 473.16"/><rect class="cls-9" x="544.69" y="463.49" width="49.71" height="9.67"/><polygon class="cls-4" points="629.55 452.87 594.4 473.16 594.4 463.49 629.55 443.2 629.55 452.87"/><polygon class="cls-12" points="548.87 393.77 519.63 410.65 519.63 434.53 548.87 451.41 590.22 451.41 619.46 434.53 619.46 410.65 590.22 393.77 548.87 393.77"/><polygon class="cls-7" points="548.87 451.41 519.63 434.53 519.63 -238.09 548.87 -221.21 548.87 451.41"/><rect class="cls-9" x="548.87" y="-221.21" width="41.35" height="672.61"/><polygon class="cls-4" points="619.46 434.53 590.22 451.41 590.22 -221.21 619.46 -238.09 619.46 434.53"/><polygon class="cls-4" points="320.25 518.69 277.38 543.44 277.38 578.44 320.25 603.19 380.87 603.19 423.74 578.44 423.74 543.44 380.87 518.69 320.25 518.69"/><polygon class="cls-7" points="320.25 614.99 277.38 590.24 277.38 578.44 320.25 603.19 320.25 614.99"/><rect class="cls-9" x="320.25" y="603.19" width="60.63" height="11.79"/><polygon class="cls-4" points="423.74 590.24 380.87 614.99 380.87 603.19 423.74 578.44 423.74 590.24"/><polygon class="cls-4" points="325.71 510.94 290.56 531.24 290.56 559.93 325.71 580.23 375.41 580.23 410.56 559.93 410.56 531.24 375.41 510.94 325.71 510.94"/><polygon class="cls-7" points="325.71 589.9 290.56 569.61 290.56 559.93 325.71 580.23 325.71 589.9"/><rect class="cls-9" x="325.71" y="580.23" width="49.71" height="9.67"/><polygon class="cls-4" points="410.56 569.61 375.41 589.9 375.41 580.23 410.56 559.93 410.56 569.61"/><polygon class="cls-12" points="329.88 510.5 300.65 527.39 300.65 551.26 329.88 568.14 371.24 568.14 400.47 551.26 400.47 527.39 371.24 510.5 329.88 510.5"/><polygon class="cls-7" points="329.88 568.14 300.65 551.26 300.65 -179.11 329.88 -162.23 329.88 568.14"/><rect class="cls-9" x="329.89" y="-162.23" width="41.35" height="730.37"/><polygon class="cls-4" points="400.47 551.26 371.24 568.14 371.24 -162.23 400.47 -179.11 400.47 551.26"/><polygon class="cls-4" points="101.26 635.42 58.39 660.17 58.39 695.18 101.26 719.93 161.89 719.93 204.76 695.18 204.76 660.17 161.89 635.42 101.26 635.42"/><polygon class="cls-7" points="101.26 731.72 58.39 706.97 58.39 695.18 101.26 719.93 101.26 731.72"/><rect class="cls-9" x="101.26" y="719.93" width="60.63" height="11.79"/><polygon class="cls-4" points="204.76 706.97 161.89 731.72 161.89 719.93 204.76 695.18 204.76 706.97"/><polygon class="cls-4" points="106.72 627.68 71.57 647.97 71.57 676.67 106.72 696.96 156.43 696.96 191.58 676.67 191.58 647.97 156.43 627.68 106.72 627.68"/><polygon class="cls-7" points="106.72 706.63 71.57 686.34 71.57 676.67 106.72 696.96 106.72 706.63"/><rect class="cls-9" x="106.72" y="696.96" width="49.71" height="9.67"/><polygon class="cls-4" points="191.58 686.34 156.43 706.63 156.43 696.96 191.58 676.67 191.58 686.34"/><polygon class="cls-12" points="110.9 627.24 81.66 644.12 81.66 667.99 110.9 684.88 152.25 684.88 181.49 667.99 181.49 644.12 152.25 627.24 110.9 627.24"/><polygon class="cls-7" points="110.9 684.88 81.66 667.99 81.66 -120.14 110.9 -103.26 110.9 684.88"/><rect class="cls-9" x="110.9" y="-103.26" width="41.35" height="788.13"/><polygon class="cls-4" points="181.49 667.99 152.25 684.88 152.25 -103.26 181.49 -120.14 181.49 667.99"/><path class="cls-13" d="M1158.48,463.56l275-155.62c19.31-10.93,53.34-9.15,76,4l571.1,330.84c22.67,13.14,25.4,32.65,6.09,43.58L1811.69,842c-19.31,10.93-53.35,9.14-76-4l-571.1-330.85C1141.9,494,1139.17,474.49,1158.48,463.56Z"/><path class="cls-14" d="M1800.49,817.77l274.85-155.6c9-5.12,13.24-12,12.94-19.18l.06,0-.11-39-15.29,17.5c-1-.64-2-1.27-3.07-1.88L1507.61,303.28c-22.33-12.56-56.07-13.88-75.37-2.95l-271,153.42c-5.48-5.87-17-18.27-17-18.27l.13,38.14h0c-.4,8.6,5.86,17.76,18.46,24.85l562.26,316.35C1747.44,827.38,1781.19,828.7,1800.49,817.77Z"/><path class="cls-15" d="M1507.61,303.28c-22.33-12.56-56.07-13.88-75.37-2.95l-271,153.42c-5.48-5.87-17-18.27-17-18.27l.13,38.14h0c-.4,8.6,5.86,17.76,18.46,24.85l562.26,316.35c11.65,6.56,26.39,10,40.58,10.31l-.53-376.93Z"/><path class="cls-4" d="M1157.28,416.74l274.85-155.61c19.3-10.93,53-9.61,75.36,2.95l562.26,316.35c22.32,12.56,24.77,31.6,5.47,42.53L1800.37,778.57c-19.3,10.93-53,9.61-75.36-3L1162.75,459.27C1140.42,446.71,1138,427.66,1157.28,416.74Z"/><path class="cls-16" d="M1800.58,782.73l274.85-155.6c10-5.64,14.08-13.44,12.72-21.39-.49,6.46-4.72,12.58-12.93,17.22L1800.37,778.57c-19.3,10.93-53,9.61-75.36-3L1162.75,459.27c-10.81-6.09-16.92-13.69-18.19-21.15-.66,8.73,5.56,18.09,18.4,25.31l562.26,316.35C1747.54,792.34,1781.28,793.66,1800.58,782.73Z"/><path class="cls-17" d="M1178.45,422.87l264.1-149.52c14.34-8.13,39.42-7.14,56,2.19L2052.84,587.4c16.59,9.34,18.41,23.49,4.06,31.61L1792.8,768.54c-14.34,8.12-39.42,7.14-56-2.2L1182.51,454.48C1165.92,445.14,1164.1,431,1178.45,422.87Z"/><ellipse class="cls-18" cx="1345.02" cy="339.98" rx="12.93" ry="6.43"/><polygon class="cls-19" points="1313.29 352.18 1307.99 -1.21 1920 0 1920 702.53 1313.29 352.18"/><path class="cls-14" d="M1633.06,623.28c4.3,2.48,4.32,6.51,0,9L1605,648.6c-4.27,2.48-11.22,2.48-15.52,0l-168.13-97.07c-4.3-2.48-4.32-6.51,0-9l28.1-16.33c4.27-2.48,11.22-2.48,15.52,0Z"/><path class="cls-4" d="M1491,548.3a14.3,14.3,0,0,1,5.35,4.9l-4.74,1.09a15.28,15.28,0,0,0-1.59-2.1,9.76,9.76,0,0,0-2.46-1.93,13.63,13.63,0,0,0-7.84-1.72,19.6,19.6,0,0,0-8.67,2.75q-4.47,2.6-4.86,5c-.25,1.62.81,3.12,3.2,4.5a22,22,0,0,0,3.32,1.56q1.75.66,3.81,1.29l-3.41,2a30.8,30.8,0,0,1-7.59-3.13c-3.58-2.07-5.24-4.28-5-6.64s2.36-4.7,6.37-7a25.83,25.83,0,0,1,8-3,23.71,23.71,0,0,1,8.39-.2A22.13,22.13,0,0,1,1491,548.3Z"/><path class="cls-4" d="M1553.72,591.77l-25.43,6.6-4.24-2.45,11.35-14.73,4.14,2.39-6.92,8.38a18.17,18.17,0,0,1-3.17,3.21l.13.07a55,55,0,0,1,5.52-1.85l14.44-4Z"/><path class="cls-4" d="M1526.42,575.62q6.66,3.86-.07,7.75l-12,7-3.94-2.28,11.29-6.56q2.13-1.23,2.31-2.34c.13-.73-.44-1.46-1.69-2.18a8.81,8.81,0,0,0-5.1-1.26,14.59,14.59,0,0,0-6,2.18l-9.15,5.32-3.93-2.27,18.37-10.67,3.08,1.78-1.86,1.71.2.12a13,13,0,0,1,4.39.19A14.18,14.18,0,0,1,1526.42,575.62Z"/><path class="cls-4" d="M1507.39,567.61q-.23,2.85-4.58,5.37a19.25,19.25,0,0,1-9.34,2.74,16.67,16.67,0,0,1-9-2.27,7.81,7.81,0,0,1-3.42-3.31,3.86,3.86,0,0,1,.28-3.71,10.69,10.69,0,0,1,4-3.55,19.22,19.22,0,0,1,9.28-2.72,16.89,16.89,0,0,1,9,2.29Q1507.62,564.78,1507.39,567.61Zm-19.65,4q4.68,2.7,11-1t1.58-6.38a8.37,8.37,0,0,0-5.21-1.13,15,15,0,0,0-5.78,2.08q-6.36,3.69-1.62,6.42"/><path class="cls-4" d="M1599.39,613.41l-4.08,2.37,5.27,3-3,1.72-5.26-3-9.83,5.71c-.94.55-1.41,1.09-1.38,1.63s.42,1,1.19,1.46a15.44,15.44,0,0,0,3.33,1.4l-2.94,1.71a14.93,14.93,0,0,1-2.15-.69,19.26,19.26,0,0,1-2.33-1.12q-5.58-3.23.27-6.62l9.9-5.75-2.53-1.46,1.72-1,4.14.74L1597,612Z"/><path class="cls-4" d="M1563.83,606.82l-2.11,1.23-12.32-7.11c-1.73,1.06-2.61,2.14-2.66,3.22s.77,2.11,2.43,3.07a22.29,22.29,0,0,0,3.36,1.58,32.72,32.72,0,0,0,4,1.16l-3.17,1.84a23.54,23.54,0,0,1-3.87-1.12,27.47,27.47,0,0,1-3.64-1.77c-2.88-1.66-4.29-3.44-4.25-5.35s1.53-3.7,4.45-5.4a19.93,19.93,0,0,1,9.33-2.81,15.88,15.88,0,0,1,8.78,2.08q3.66,2.12,3.57,4.62C1567.73,603.74,1566.41,605.32,1563.83,606.82Zm-11.54-7.49,8.39,4.85c1.5-.89,2.27-1.77,2.34-2.64s-.52-1.66-1.76-2.38a8.06,8.06,0,0,0-4.19-1,11.59,11.59,0,0,0-4.78,1.22"/><path class="cls-4" d="M1586,610a11.19,11.19,0,0,1,1.79,1.23l-4,1.89a9.14,9.14,0,0,0-1.54-1.12,10.13,10.13,0,0,0-5.34-1.31,10.92,10.92,0,0,0-5.44,1.46l-9.59,5.58-3.93-2.27,18.37-10.67,3.07,1.77-2.72,2.18.2.12a17.19,17.19,0,0,1,5-.13A10.84,10.84,0,0,1,1586,610Z"/><path class="cls-4" d="M1449.55,203.16,1449,390.63l-26.23-15.14.35-121q.06-21.66,1-33.85a43.66,43.66,0,0,1-6.32,3.15q-3.73,1.57-25.12,9.14l-13.11-26.71,48.11-15.64Z"/><path class="cls-4" d="M1587.43,275.55a103.94,103.94,0,0,1,36.45,34.72q13.69,21.59,13.62,44.66,0,12.7-4,21.83a47.8,47.8,0,0,1-12.24,16.51q-8.22,7.38-27.37,17l-28.43,15.18v1.29l77.44,44.71L1642.8,498l-110.59-63.84.07-22.83L1574.49,387q18.69-11.16,24.8-16.82a36.58,36.58,0,0,0,8.92-12.13,39.37,39.37,0,0,0,2.84-15.7,45.56,45.56,0,0,0-6.58-23.83,49.84,49.84,0,0,0-18.34-17.92,48.29,48.29,0,0,0-18.15-6.49q-8.76-1.08-20.29,2.67l-14.12-28.06q13.67-5.34,26.51-3.45T1587.43,275.55Z"/><path class="cls-4" d="M1797.38,394.52q24.66,14.25,38.46,34.41t13.75,41.59q0,17.84-9.13,24.46T1815,496.25v1q19.63,14.16,29.42,31.05a69.22,69.22,0,0,1,9.74,35.48q-.08,27.06-16.75,32.14T1790,583.32q-27.11-15.66-45.72-36.54l.07-26.8a211.1,211.1,0,0,0,22,21.8,150.61,150.61,0,0,0,22.31,16.08q19,10.95,28.36,8.29t9.45-19.59q0-15-10.32-28t-32.56-25.86l-14.17-8.18.07-24.5,14.39,8.31q39.06,22.56,39.15-8.48a40.5,40.5,0,0,0-6.76-22.52q-6.78-10.47-20.06-18.14a64.17,64.17,0,0,0-17.87-7.29q-8.61-2-20.35,0l-12.77-28.43Q1767.7,377.38,1797.38,394.52Z"/><g class="cls-20"><polygon points="291.11 878.93 323.27 897.62 300.99 910.49 451.76 998.1 474.04 985.24 506.2 1003.93 463.31 1090.18 379.35 1039.91 400.27 1027.83 249.5 940.21 228.58 952.29 196.42 933.61 291.11 878.93"/></g><g class="cls-20"><path d="M606.21,734.65l-21.62,12.48,146.28,85,21.62-12.48,31.2,18.13-91.88,53.05-14,8.09-34.91,86.22-88.17-51.3L575,922.12l-146.28-85-20.31,11.73-31.2-18.14,91.88-53,14.07-8.07L575,716.52Zm74.56,126.24L534.64,776,514.33,787.7l-14.1,8-21.54,12.52,146.28,85,11.4-6.58,44.4-25.81"/></g><g class="cls-20"><path d="M960.78,528.23,940.45,540l137.61,80,20.33-11.74,98.81,58.42L911.52,831.55l-98.8-58.41,19.1-11-137.61-80-19.1,11-29.35-17.06,86.43-49.9,13.23-7.59,86.39-49.93L845,561.1l86.39-49.92Zm70.28,118.85-137.61-80-19.1,11-13.26,7.58-20.27,11.78,137.47,79.89L1027.43,649l3.63-1.93M931.3,704.51,793.83,624.62l-19.1,11-13.26,7.57L741.2,655l137.61,80,11.93-6.89,40.56-23.58"/></g><polygon class="cls-18" points="529.31 1018.08 497.51 999.6 517.84 987.86 549.64 1006.34 529.31 1018.08"/><polygon class="cls-18" points="463.31 1090.18 431.51 1071.7 431.41 1037.76 463.21 1056.24 463.31 1090.18"/><polygon class="cls-18" points="463.21 1056.24 431.41 1037.76 450.52 1026.73 482.31 1045.21 463.21 1056.24"/><polygon class="cls-18" points="482.31 1045.21 450.52 1026.73 450.06 867.57 481.86 886.05 482.31 1045.21"/><polygon class="cls-18" points="462.76 897.08 430.96 878.6 430.87 844.66 462.66 863.13 462.76 897.08"/><polygon class="cls-18" points="462.66 863.13 430.87 844.66 517.29 794.76 549.09 813.24 462.66 863.13"/><polygon class="cls-8" points="549.09 813.24 549.19 847.18 528.85 858.92 529.31 1018.08 549.64 1006.34 549.74 1040.28 463.31 1090.18 463.21 1056.24 482.31 1045.21 481.86 886.05 462.76 897.08 462.66 863.13 549.09 813.24"/><polygon class="cls-8" points="549.09 813.24 549.19 847.18 528.85 858.92 529.31 1018.08 549.64 1006.34 549.74 1040.28 463.31 1090.18 463.21 1056.24 482.31 1045.21 481.86 886.05 462.76 897.08 462.66 863.13 549.09 813.24"/><g class="cls-21"><polygon class="cls-18" points="808.49 855.53 776.7 837.05 797.03 825.31 828.83 843.79 808.49 855.53"/><polygon class="cls-18" points="742.4 893.69 710.6 875.21 729.71 864.18 761.5 882.66 742.4 893.69"/><polygon class="cls-18" points="761.5 882.66 729.71 864.18 729.25 705.02 761.05 723.5 761.5 882.66"/><polygon class="cls-18" points="741.85 700.58 710.05 682.11 796.48 632.21 828.28 650.68 741.85 700.58"/><polygon class="cls-8" points="828.28 650.68 828.38 684.63 808.04 696.37 808.49 855.53 828.83 843.79 828.93 877.73 742.5 927.63 742.4 893.69 761.5 882.66 761.05 723.5 741.95 734.53 741.85 700.58 828.28 650.68"/></g><g class="cls-21"><polygon class="cls-18" points="708.87 913.04 677.08 894.56 710.6 875.21 742.4 893.69 708.87 913.04"/><polygon class="cls-18" points="642.88 985.15 611.08 966.67 610.98 932.72 642.78 951.2 642.88 985.15"/><polygon class="cls-18" points="642.78 951.2 610.98 932.72 630.09 921.7 661.88 940.17 642.78 951.2"/><polygon class="cls-18" points="661.88 940.17 630.09 921.7 629.63 762.54 661.43 781.02 661.88 940.17"/><polygon class="cls-18" points="642.33 792.05 610.53 773.57 610.43 739.62 642.23 758.1 642.33 792.05"/><polygon class="cls-18" points="642.23 758.1 610.43 739.62 710.05 682.11 741.85 700.58 642.23 758.1"/><polygon class="cls-8" points="741.85 700.58 741.95 734.53 708.42 753.89 708.87 913.04 742.4 893.69 742.5 927.63 642.88 985.15 642.78 951.2 661.88 940.17 661.43 781.02 642.33 792.05 642.23 758.1 741.85 700.58"/></g><g class="cls-21"><polygon class="cls-18" points="1176.76 644.42 1144.96 625.94 1165.3 614.19 1197.1 632.67 1176.76 644.42"/><polygon class="cls-18" points="1110.67 682.57 1078.87 664.09 1097.97 653.07 1129.77 671.55 1110.67 682.57"/><polygon class="cls-18" points="1129.77 671.55 1097.97 653.07 1097.52 493.91 1129.32 512.39 1129.77 671.55"/><polygon class="cls-18" points="1110.12 489.47 1078.33 470.99 1164.76 421.09 1196.55 439.57 1110.12 489.47"/><polygon class="cls-8" points="1196.55 439.57 1196.65 473.51 1176.31 485.26 1176.76 644.42 1197.1 632.67 1197.2 666.62 1110.77 716.52 1110.67 682.57 1129.77 671.55 1129.32 512.39 1110.22 523.41 1110.12 489.47 1196.55 439.57"/></g><g class="cls-21"><polygon class="cls-18" points="1077.14 701.93 1045.34 683.45 1078.87 664.09 1110.67 682.57 1077.14 701.93"/><polygon class="cls-18" points="1011.04 740.09 979.25 721.61 998.35 710.58 1030.15 729.06 1011.04 740.09"/><polygon class="cls-18" points="1030.15 729.06 998.35 710.58 997.9 551.42 1029.7 569.9 1030.15 729.06"/><polygon class="cls-18" points="1010.5 546.99 978.7 528.51 1078.33 470.99 1110.12 489.47 1010.5 546.99"/><polygon class="cls-8" points="1110.12 489.47 1110.22 523.41 1076.69 542.77 1077.14 701.93 1110.67 682.57 1110.77 716.52 1011.14 774.04 1011.04 740.09 1030.15 729.06 1029.7 569.9 1010.59 580.93 1010.5 546.99 1110.12 489.47"/></g><g class="cls-21"><polygon class="cls-18" points="977.52 759.45 945.72 740.97 979.25 721.61 1011.04 740.09 977.52 759.45"/><polygon class="cls-18" points="911.52 831.55 879.72 813.07 879.63 779.13 911.42 797.61 911.52 831.55"/><polygon class="cls-18" points="911.42 797.61 879.63 779.13 898.73 768.1 930.53 786.58 911.42 797.61"/><polygon class="cls-18" points="930.53 786.58 898.73 768.1 898.28 608.94 930.08 627.42 930.53 786.58"/><polygon class="cls-18" points="910.97 638.45 879.18 619.97 879.08 586.02 910.88 604.5 910.97 638.45"/><polygon class="cls-18" points="910.88 604.5 879.08 586.02 978.7 528.51 1010.5 546.99 910.88 604.5"/><polygon class="cls-8" points="1010.5 546.99 1010.59 580.93 977.07 600.29 977.52 759.45 1011.04 740.09 1011.14 774.04 911.52 831.55 911.42 797.61 930.53 786.58 930.08 627.42 910.97 638.45 910.88 604.5 1010.5 546.99"/></g></g></g></svg>